<svg height="567" viewBox="-.093 -2.981 676.01 159.772" width="2500" xmlns="http://www.w3.org/2000/svg"><path d="m11.401 153.12c-5.069-.843-10.201-5.815-11.129-10.784-.365-1.955-.362-89.338.003-93.296 1.069-11.58 4.35-20.115 10.984-28.575 1.918-2.445 6.098-6.636 8.591-8.612 7.254-5.75 16.24-9.67 25.83-11.272 4.26-.71 12.842-.641 17.15.139 11.248 2.038 20.816 6.857 28.686 14.446 9.568 9.227 14.912 20.615 15.898 33.875.175 2.355.274 19.753.272 47.758-.003 37.246-.062 44.33-.383 45.844-2.213 10.443-15.832 14.148-23.556 6.407-1.76-1.764-2.788-3.479-3.497-5.837-.43-1.43-.471-2.99-.471-17.707 0-8.877-.097-16.288-.215-16.47-.169-.261-5.626-.331-25.823-.331h-25.608l-.173 2.82c-.095 1.55-.172 8.866-.172 16.258 0 8.762-.102 13.928-.292 14.842-1.072 5.159-5.681 9.412-11.281 10.41-2.314.412-2.785.42-4.814.084zm68.094-72.083c.367-.367.415-2.024.415-14.228 0-7.91-.117-14.771-.274-16.055-1.76-14.394-14.124-24.603-28.168-23.256-11.028 1.058-19.833 8.66-22.806 19.691l-.713 2.646-.1 15.374c-.09 13.988-.06 15.414.336 15.81s2.62.434 25.664.434c22.583 0 25.273-.044 25.646-.416zm443.46 72.106c-5.622-.739-10.014-4.58-11.705-10.236-.423-1.414-.466-5.225-.593-51.93-.131-48.211-.158-50.46-.627-51.725-1.744-4.711-4.691-8.041-9.035-10.209-3.777-1.885-7.739-2.216-11.77-.982-5.867 1.795-9.89 5.883-11.67 11.857-.584 1.957-.593 2.25-.795 25.13-.112 12.734-.2 34.998-.194 49.478.008 19.235-.074 26.789-.304 28.046-.656 3.586-3.306 7.22-6.495 8.904-2.356 1.244-4.135 1.68-6.854 1.676-4.16-.005-7.104-1.154-9.84-3.836-1.981-1.943-3.377-4.623-3.787-7.274-.167-1.079-.319-19.822-.408-50.324-.16-54.256-.036-50.926-2.027-54.98-3.435-6.996-12.164-10.966-19.269-8.764-6.575 2.038-10.5 5.932-12.256 12.163l-.572 2.025-.139 50.403-.139 50.403-.614 1.456c-1.802 4.268-5.106 7.263-9.185 8.325-1.996.52-5.658.52-7.654 0-5.256-1.369-9.235-5.98-9.918-11.493-.38-3.063-.384-97.169-.004-101.21.844-8.996 4.782-18.008 10.899-24.946 6.445-7.31 15.395-12.376 25.457-14.41 2.506-.507 3.74-.59 8.614-.58 4.873.01 6.086.098 8.467.609 7.582 1.627 13.958 4.705 20.09 9.696l2.076 1.69 1.815-1.459c11.119-8.93 23.71-12.267 37.408-9.914 15.894 2.73 29.415 14.357 34.49 29.657 2.037 6.14 1.856.663 1.946 59.115.073 47.475.04 52.505-.345 53.832-1.901 6.54-8.288 10.699-15.063 9.808zm56.224-.005c-.8-.137-2.348-.685-3.44-1.219-3.297-1.611-5.704-4.531-7.05-8.554-.464-1.385-.492-3.513-.57-44.185-.082-43.267.016-49.321.892-55.154 2.11-14.045 10.595-26.932 23.133-35.13 17.168-11.228 39.491-11.877 57.013-1.66 9.275 5.409 16.715 13.354 21.288 22.734 2.527 5.184 4.069 10.194 4.81 15.632.447 3.287.662 93.899.228 96.44-.87 5.101-4.84 9.382-9.928 10.708-1.977.514-5.39.52-7.344.01-4.54-1.182-7.786-4.173-9.525-8.778-.573-1.516-.585-1.832-.715-18.344l-.132-16.8-25.649-.068c-20.343-.054-25.691 0-25.859.264-.116.183-.212 7.421-.214 16.085-.003 13.226-.07 16.007-.407 17.33-1.271 4.98-4.977 8.838-9.866 10.274-1.84.54-4.844.728-6.665.415zm68.66-87.693c0-15.309-.012-15.655-.594-17.94-2.044-8.018-7.175-14.348-14.418-17.788-4.789-2.274-11.349-2.971-16.423-1.746-4.956 1.196-9.376 3.696-12.77 7.22-3.347 3.477-5.382 7.084-6.675 11.834l-.693 2.545-.092 15.446c-.051 8.494-.03 15.609.047 15.81.118.307 4.196.354 25.879.297l25.739-.067zm-485.246 85.965c-4.81-.437-7.728-1.22-11.431-3.072-8.862-4.43-14.194-11.971-15.396-21.774-.203-1.655-.291-16.943-.291-50.138 0-52.435-.066-50.147 1.59-55.09 1.387-4.139 3.015-6.872 5.916-9.93 4.103-4.328 9.795-7.474 15.908-8.794 2.552-.552 3.227-.572 19.05-.569 15.626.003 16.54.03 19.282.564 18.095 3.527 32.33 17.437 36.152 35.322.887 4.151 1.018 11.185.29 15.452-.942 5.513-3.19 11.37-6.179 16.103-.585.927-.96 1.778-.831 1.89.128.113 1.138.876 2.244 1.696 2.896 2.147 6.993 6.523 9.209 9.837 8.991 13.446 10.116 29.658 3.047 43.922-4.41 8.899-12.015 16.371-21.146 20.778-4.981 2.404-8.233 3.246-14.816 3.835-5.783.518-36.796.494-42.598-.032zm34.131-27.077c7.636-.216 7.683-.221 9.828-1.015 5.183-1.919 9.278-6.292 10.833-11.57.678-2.3.608-6.312-.15-8.732-1.543-4.917-5.239-9.05-9.96-11.138-3.088-1.365-4.448-1.44-24.97-1.366l-18.919.069v15.478c0 14.697.026 15.52.5 16.302.691 1.143 1.837 1.748 3.718 1.963 2.274.26 20.026.266 29.12.009zm-8.731-61.135c4.335-.3 6.16-.717 8.834-2.023 2.334-1.14 5.536-4.07 6.876-6.29 2.925-4.852 3.195-10.795.721-15.925-2.353-4.88-5.767-7.676-11.163-9.14-1.942-.526-2.892-.576-13.157-.69-6.085-.066-11.705-.041-12.488.057-1.633.204-2.895.955-3.76 2.239l-.602.893v15.394c0 8.468.08 15.475.177 15.572.272.272 20.388.2 24.562-.087zm108.082 88.357c-11.995-1.166-21.227-7.677-25.388-17.907-1.061-2.61-1.597-4.995-1.875-8.35-.354-4.282-.327-93.18.03-96.987.497-5.313 1.849-9.294 4.502-13.26 4.284-6.406 9.951-10.138 18.878-12.433 2.05-.527 2.776-.54 29.936-.54 31.797 0 29.507-.165 33.13 2.379 3.18 2.233 5.107 5.356 5.657 9.166.912 6.322-2.861 12.15-9.617 14.85-1.05.42-3.272.47-26.546.591-24.947.131-25.416.143-26.316.672-.505.296-1.16.951-1.456 1.455-.525.894-.538 1.303-.538 16.527v15.61l22.093.15c16.314.111 22.4.236 23.271.477 5.472 1.517 9.547 6.899 9.533 12.592-.015 6.172-4.238 11.783-10.098 13.415-.827.23-7.18.36-22.971.469l-21.828.15v15.346c0 14.51.027 15.4.5 16.35.317.64.895 1.218 1.587 1.588l1.088.583 25.268.132 25.267.132 1.789.717c3.573 1.432 6 3.647 7.62 6.956 1.922 3.921 1.96 7.813.114 11.723-1.63 3.457-5.296 6.322-9.258 7.238-1.587.367-50.798.556-54.372.209z"/></svg>