<svg xmlns="http://www.w3.org/2000/svg" viewBox="0 0 24 24">
  <path fill="#232F3E" d="M12 0C5.373 0 0 5.373 0 12s5.373 12 12 12 12-5.373 12-12S18.627 0 12 0z"/>
  <path fill="#00A8E1" d="M18.5 16.2c-.8.6-1.9.6-2.7 0l-3.1-2.4c-.8-.6-.8-1.6 0-2.2l3.1-2.4c.8-.6 1.9-.6 2.7 0s.8 1.6 0 2.2l-2.2 1.7 2.2 1.7c.8.6.8 1.6 0 2.2zm-7.4-4.5v3.4c0 .3-.2.5-.5.5s-.5-.2-.5-.5v-3.4l-1.4 1.4c-.2.2-.5.2-.7 0s-.2-.5 0-.7l2.1-2.1c.2-.2.5-.2.7 0l2.1 2.1c.2.2.2.5 0 .7s-.5.2-.7 0l-1.1-1.4z"/>
  <path fill="#FF9900" d="M17.3 18.8c-.2-.2-.2-.5 0-.7.5-.4 1-.9 1.4-1.5.1-.2.4-.2.6-.1s.2.4.1.6c-.4.7-1 1.3-1.6 1.7-.2.1-.3.1-.5 0z"/>
</svg>