<svg version="1.1" id="Layer_1" xmlns="http://www.w3.org/2000/svg" xmlns:xlink="http://www.w3.org/1999/xlink" x="0px" y="0px"
	 width="100%" viewBox="0 0 225 225" enable-background="new 0 0 225 225" xml:space="preserve">
<path fill="#0678FF" opacity="1.000000" stroke="none" 
	d="
M150.000000,226.000000 
	C100.000000,226.000000 50.500008,226.000000 1.000007,226.000000 
	C1.000004,151.000000 1.000004,76.000015 1.000002,1.000017 
	C75.999992,1.000011 150.999985,1.000011 225.999969,1.000006 
	C225.999985,75.999985 225.999985,150.999969 226.000000,225.999969 
	C200.833328,226.000000 175.666672,226.000000 150.000000,226.000000 
M59.243011,155.304184 
	C57.327232,154.090332 55.411449,152.876495 53.495667,151.662643 
	C53.072861,152.113068 52.650051,152.563492 52.227245,153.013916 
	C53.192650,154.775391 53.814716,156.888367 55.189236,158.231018 
	C58.982002,161.935837 62.651775,166.061508 67.143768,168.707428 
	C95.234688,185.253891 123.922287,185.178146 152.773544,170.653854 
	C155.687271,169.187012 158.200226,166.824356 160.658310,164.610031 
	C161.444351,163.901947 161.452484,162.330307 161.816544,161.153778 
	C160.618469,161.159866 159.212906,160.752869 158.253799,161.234650 
	C145.965775,167.407440 132.766006,169.867722 119.231369,170.528931 
	C97.994812,171.566360 77.818718,167.904449 59.243011,155.304184 
M131.497330,58.966640 
	C126.265396,55.713902 124.280930,56.012302 118.365494,60.982437 
	C117.509003,56.016533 114.166916,57.593124 111.240540,57.960197 
	C111.240540,68.273216 111.240540,78.315971 111.240540,88.293861 
	C118.825882,89.196579 118.813278,89.196533 118.836258,82.484779 
	C118.852219,77.820648 118.577911,73.116936 119.130295,68.514572 
	C119.318428,66.947044 121.632484,65.634682 122.975136,64.205719 
	C124.305107,65.636093 126.041672,66.874184 126.837570,68.557137 
	C127.484940,69.926018 127.019714,71.827980 127.022324,73.493584 
	C127.030029,78.414062 127.025063,83.334557 127.025063,88.401886 
	C130.003433,88.401886 132.246796,88.401886 134.705215,88.401886 
	C134.825623,87.314621 134.985214,86.521523 134.989838,85.727516 
	C135.021851,80.229515 134.650024,74.691063 135.238937,69.255646 
	C135.437515,67.422981 138.047394,65.851585 139.555222,64.160774 
	C140.779694,65.856956 142.846451,67.453285 143.061722,69.269112 
	C143.587814,73.706711 143.260162,78.245819 143.271545,82.744080 
	C143.288101,89.282227 144.228134,89.904297 151.152405,87.787331 
	C151.152405,80.703766 151.698105,73.504768 150.903259,66.456970 
	C150.549469,63.319954 148.120590,59.613586 145.505539,57.740398 
	C142.309372,55.450954 138.330124,56.880825 135.732285,60.037365 
	C133.941788,62.212936 133.100830,60.936783 131.497330,58.966640 
M118.165512,119.499832 
	C118.165512,112.569199 118.165512,105.638565 118.165512,98.185966 
	C115.080971,98.351891 112.730133,98.478340 110.033798,98.623383 
	C110.033798,103.146240 110.033798,107.061722 110.033798,111.254967 
	C102.015617,105.049706 95.044800,107.323990 92.752495,116.942459 
	C91.813133,120.884003 91.844597,125.239311 92.346451,129.293488 
	C92.910919,133.853546 94.955399,138.632706 99.896385,139.408875 
	C103.274834,139.939575 107.047791,137.958878 110.219917,137.202209 
	C112.445747,137.940796 114.939522,138.768295 118.165512,139.838760 
	C118.165512,132.447632 118.165512,126.473595 118.165512,119.499832 
M68.451706,60.001438 
	C62.947346,55.491028 60.046249,55.670391 53.869083,61.232132 
	C52.942112,55.954308 49.535896,57.436302 46.384964,58.075706 
	C46.384964,71.493256 46.384964,84.687202 46.384964,97.825790 
	C49.007523,97.825790 51.260597,97.825790 53.950535,97.825790 
	C53.950535,95.555939 53.950535,93.598541 53.950535,91.641144 
	C53.950535,89.590858 53.950535,87.540573 53.950535,84.775223 
	C61.251186,92.944550 69.069504,88.432274 71.061646,81.609497 
	C73.182533,74.345787 73.331177,67.214546 68.451706,60.001438 
M176.221024,86.805954 
	C177.707718,84.765129 179.194412,82.724297 181.225662,79.935928 
	C177.927948,79.177032 175.773712,78.681290 173.619476,78.185539 
	C173.745789,78.697845 173.872101,79.210152 173.998413,79.722466 
	C171.702637,80.755920 169.061905,83.010658 167.206100,82.486465 
	C165.270126,81.939636 164.090530,78.715019 162.580246,76.661118 
	C162.908890,76.224663 163.237534,75.788208 163.566177,75.351753 
	C169.297379,75.351753 175.028595,75.351753 180.680893,75.351753 
	C181.631653,65.639244 177.480270,58.358231 170.676605,57.070518 
	C163.801178,55.769222 157.343414,60.012527 155.524216,67.660286 
	C153.876404,74.587494 154.276062,81.484833 160.238449,86.457649 
	C164.941971,90.380531 170.304947,90.268806 176.221024,86.805954 
M147.419525,132.808380 
	C147.615250,127.808128 143.397202,130.366928 141.671021,129.901138 
	C139.332565,131.488571 136.602219,133.475021 134.536362,132.932281 
	C132.725861,132.456589 131.661316,129.141678 130.267258,127.080917 
	C130.648117,126.662163 131.028976,126.243401 131.409836,125.824638 
	C137.150208,125.824638 142.890594,125.824638 149.308899,125.824638 
	C148.675751,122.284325 148.469696,119.288445 147.574615,116.514931 
	C145.765869,110.910271 141.451599,107.699394 136.233673,107.602615 
	C130.370987,107.493874 125.835426,110.410904 124.337128,115.668022 
	C122.994019,120.380623 122.823189,125.813499 123.671890,130.659470 
	C124.578468,135.835938 128.629822,139.269165 134.170471,139.899124 
	C139.755310,140.534119 144.317490,138.708679 147.419525,132.808380 
M152.218979,119.225769 
	C152.124741,121.378670 151.852081,123.541252 151.968384,125.682716 
	C152.381393,133.287415 157.655411,139.426636 164.084198,139.967606 
	C170.981857,140.548035 176.415436,135.953552 178.237015,128.000366 
	C180.202499,119.418930 175.973618,110.253036 169.070160,108.131599 
	C161.828690,105.906311 155.794617,109.646088 152.218979,119.225769 
M60.494808,127.504791 
	C59.497448,122.964760 58.517376,118.420837 57.498608,113.885612 
	C56.032402,107.358543 55.193531,106.922852 48.103424,109.146622 
	C50.893368,119.111092 53.685341,129.082794 56.509762,139.170395 
	C58.988251,139.170395 61.000729,139.361374 62.953903,139.103394 
	C64.260506,138.930817 66.362244,138.382111 66.608437,137.555191 
	C69.431030,128.074646 71.965767,118.508400 74.583267,108.942810 
	C67.030518,107.297234 66.576355,107.544594 65.165039,113.867943 
	C64.079819,118.730255 63.040787,123.602875 61.929462,128.459061 
	C61.927448,128.467865 61.154388,128.300247 60.494808,127.504791 
M76.107040,84.162201 
	C76.450363,89.216240 77.318726,89.649254 84.100861,87.862274 
	C84.100861,83.335060 84.097321,78.704933 84.101608,74.074806 
	C84.110184,64.816444 84.877243,64.089508 94.836853,64.983795 
	C94.669022,62.360703 95.350845,58.269737 94.194969,57.659473 
	C90.414368,55.663429 86.905144,57.570885 85.354958,59.851593 
	C82.095306,58.823635 79.441490,57.986729 76.106918,56.935139 
	C76.106918,66.645340 76.106918,74.937080 76.107040,84.162201 
M102.390381,88.724564 
	C103.561180,87.778519 105.721458,86.860222 105.748878,85.882118 
	C106.007652,76.654228 105.902779,67.416145 105.902779,57.887806 
	C103.064499,57.887806 100.674553,57.887806 97.964539,57.887806 
	C97.964539,67.467918 97.861961,76.728165 98.119957,85.978355 
	C98.146355,86.924751 100.333405,87.810890 102.390381,88.724564 
M87.154411,123.501793 
	C87.154411,118.447929 87.154411,113.394073 87.154411,108.060783 
	C83.959015,108.221054 81.729317,108.332886 79.468369,108.446289 
	C79.468369,118.931694 79.468369,128.813187 79.468369,138.776978 
	C82.142685,138.776978 84.505539,138.776978 87.154419,138.776978 
	C87.154419,133.757309 87.154419,129.127914 87.154411,123.501793 
M162.833878,150.072968 
	C158.584656,151.067383 153.871933,151.300934 151.162170,157.185471 
	C154.359940,156.747910 156.453964,156.175186 158.526184,156.245422 
	C161.572388,156.348694 164.603012,156.911087 167.640274,157.277893 
	C166.955856,160.082764 166.445694,162.945908 165.533066,165.674438 
	C164.774078,167.943558 163.542023,170.054459 162.519531,172.235443 
	C163.229965,172.703644 163.940414,173.171844 164.650848,173.640045 
	C167.240677,170.657700 170.655136,168.061188 172.264984,164.620361 
	C177.010056,154.478363 175.924011,149.891327 162.833878,150.072968 
M105.574440,47.766491 
	C103.645569,47.324757 101.088982,45.930164 99.946808,46.682602 
	C98.520683,47.622105 97.220810,50.741837 97.783768,52.158199 
	C98.357689,53.602131 101.401604,55.093956 103.108665,54.841019 
	C106.538925,54.332764 107.192421,51.542294 105.574440,47.766491 
M81.164421,97.124382 
	C80.472542,99.231323 79.270760,101.352844 79.330368,103.438309 
	C79.355522,104.318611 82.079544,105.842010 83.501305,105.760262 
	C84.932465,105.677971 86.842377,104.258766 87.534027,102.908707 
	C89.179359,99.697151 86.633865,97.136543 81.164421,97.124382 
z"/>
<path fill="#F7FAFF" opacity="1.000000" stroke="none" 
	d="
M59.526917,155.527100 
	C77.818718,167.904449 97.994812,171.566360 119.231369,170.528931 
	C132.766006,169.867722 145.965775,167.407440 158.253799,161.234650 
	C159.212906,160.752869 160.618469,161.159866 161.816559,161.153778 
	C161.452484,162.330307 161.444351,163.901947 160.658310,164.610031 
	C158.200226,166.824356 155.687271,169.187012 152.773544,170.653854 
	C123.922287,185.178146 95.234688,185.253891 67.143768,168.707428 
	C62.651775,166.061508 58.982002,161.935837 55.189236,158.231018 
	C53.814716,156.888367 53.192650,154.775391 52.227245,153.013916 
	C52.650051,152.563492 53.072861,152.113068 53.495667,151.662643 
	C55.411449,152.876495 57.327232,154.090332 59.526917,155.527100 
z"/>
<path fill="#F7FAFF" opacity="1.000000" stroke="none" 
	d="
M131.774139,59.248199 
	C133.100830,60.936783 133.941788,62.212936 135.732285,60.037365 
	C138.330124,56.880825 142.309372,55.450954 145.505539,57.740398 
	C148.120590,59.613586 150.549469,63.319954 150.903259,66.456970 
	C151.698105,73.504768 151.152405,80.703766 151.152405,87.787331 
	C144.228134,89.904297 143.288101,89.282227 143.271545,82.744080 
	C143.260162,78.245819 143.587814,73.706711 143.061722,69.269112 
	C142.846451,67.453285 140.779694,65.856956 139.555222,64.160774 
	C138.047394,65.851585 135.437515,67.422981 135.238937,69.255646 
	C134.650024,74.691063 135.021851,80.229515 134.989838,85.727516 
	C134.985214,86.521523 134.825623,87.314621 134.705215,88.401886 
	C132.246796,88.401886 130.003433,88.401886 127.025063,88.401886 
	C127.025063,83.334557 127.030029,78.414062 127.022324,73.493584 
	C127.019714,71.827980 127.484940,69.926018 126.837570,68.557137 
	C126.041672,66.874184 124.305107,65.636093 122.975136,64.205719 
	C121.632484,65.634682 119.318428,66.947044 119.130295,68.514572 
	C118.577911,73.116936 118.852219,77.820648 118.836258,82.484779 
	C118.813278,89.196533 118.825882,89.196579 111.240540,88.293861 
	C111.240540,78.315971 111.240540,68.273216 111.240540,57.960197 
	C114.166916,57.593124 117.509003,56.016533 118.365494,60.982437 
	C124.280930,56.012302 126.265396,55.713902 131.774139,59.248199 
z"/>
<path fill="#F8FBFF" opacity="1.000000" stroke="none" 
	d="
M118.165512,119.999695 
	C118.165512,126.473595 118.165512,132.447632 118.165512,139.838760 
	C114.939522,138.768295 112.445747,137.940796 110.219917,137.202209 
	C107.047791,137.958878 103.274834,139.939575 99.896385,139.408875 
	C94.955399,138.632706 92.910919,133.853546 92.346451,129.293488 
	C91.844597,125.239311 91.813133,120.884003 92.752495,116.942459 
	C95.044800,107.323990 102.015617,105.049706 110.033798,111.254967 
	C110.033798,107.061722 110.033798,103.146240 110.033798,98.623383 
	C112.730133,98.478340 115.080971,98.351891 118.165512,98.185966 
	C118.165512,105.638565 118.165512,112.569199 118.165512,119.999695 
M110.216095,126.202896 
	C110.000702,123.426605 110.233681,120.505043 109.399139,117.929359 
	C108.910599,116.421547 106.731590,114.540817 105.290749,114.521858 
	C103.858109,114.503006 101.591652,116.350121 101.123749,117.831566 
	C100.256927,120.576027 100.039711,123.684509 100.289536,126.577698 
	C100.534767,129.417725 100.924347,132.938065 104.964874,133.088226 
	C108.913696,133.234955 109.629578,130.136597 110.216095,126.202896 
z"/>
<path fill="#F9FBFF" opacity="1.000000" stroke="none" 
	d="
M68.701378,60.286522 
	C73.331177,67.214546 73.182533,74.345787 71.061646,81.609497 
	C69.069504,88.432274 61.251186,92.944550 53.950535,84.775223 
	C53.950535,87.540573 53.950535,89.590858 53.950535,91.641144 
	C53.950535,93.598541 53.950535,95.555939 53.950535,97.825790 
	C51.260597,97.825790 49.007523,97.825790 46.384964,97.825790 
	C46.384964,84.687202 46.384964,71.493256 46.384964,58.075706 
	C49.535896,57.436302 52.942112,55.954308 53.869083,61.232132 
	C60.046249,55.670391 62.947346,55.491028 68.701378,60.286522 
M62.519814,80.669037 
	C62.767578,76.173119 63.332912,71.657555 63.056721,67.194061 
	C62.980450,65.961487 60.387005,63.973492 58.968102,63.990253 
	C57.535866,64.007179 55.103638,65.932396 54.904575,67.285645 
	C54.343807,71.097778 54.109077,75.166969 54.869961,78.906067 
	C55.642410,82.701996 58.518078,83.812531 62.519814,80.669037 
z"/>
<path fill="#F8FBFF" opacity="1.000000" stroke="none" 
	d="
M175.902893,87.006409 
	C170.304947,90.268806 164.941971,90.380531 160.238449,86.457649 
	C154.276062,81.484833 153.876404,74.587494 155.524216,67.660286 
	C157.343414,60.012527 163.801178,55.769222 170.676605,57.070518 
	C177.480270,58.358231 181.631653,65.639244 180.680893,75.351753 
	C175.028595,75.351753 169.297379,75.351753 163.566177,75.351753 
	C163.237534,75.788208 162.908890,76.224663 162.580246,76.661118 
	C164.090530,78.715019 165.270126,81.939636 167.206100,82.486465 
	C169.061905,83.010658 171.702637,80.755920 173.998413,79.722466 
	C173.872101,79.210152 173.745789,78.697845 173.619476,78.185539 
	C175.773712,78.681290 177.927948,79.177032 181.225662,79.935928 
	C179.194412,82.724297 177.707718,84.765129 175.902893,87.006409 
M165.199921,64.746681 
	C164.495270,66.346130 163.790604,67.945587 162.961777,69.826874 
	C166.620331,69.826874 169.677963,69.826874 172.784637,69.826874 
	C171.553665,63.392078 170.405365,62.519722 165.199921,64.746681 
z"/>
<path fill="#F7FAFF" opacity="1.000000" stroke="none" 
	d="
M147.244934,133.136230 
	C144.317490,138.708679 139.755310,140.534119 134.170471,139.899124 
	C128.629822,139.269165 124.578468,135.835938 123.671890,130.659470 
	C122.823189,125.813499 122.994019,120.380623 124.337128,115.668022 
	C125.835426,110.410904 130.370987,107.493874 136.233673,107.602615 
	C141.451599,107.699394 145.765869,110.910271 147.574615,116.514931 
	C148.469696,119.288445 148.675751,122.284325 149.308899,125.824638 
	C142.890594,125.824638 137.150208,125.824638 131.409836,125.824638 
	C131.028976,126.243401 130.648117,126.662163 130.267258,127.080917 
	C131.661316,129.141678 132.725861,132.456589 134.536362,132.932281 
	C136.602219,133.475021 139.332565,131.488571 141.671021,129.901138 
	C143.397202,130.366928 147.615250,127.808128 147.244934,133.136230 
M139.903625,117.179291 
	C138.269699,116.130035 135.822510,113.831497 135.154663,114.266258 
	C133.168594,115.559158 131.882309,117.926994 129.455322,120.957657 
	C133.680557,120.957657 136.016113,121.199127 138.247559,120.822983 
	C138.999817,120.696182 139.487900,119.002144 139.903625,117.179291 
z"/>
<path fill="#F7FAFF" opacity="1.000000" stroke="none" 
	d="
M152.340515,118.825348 
	C155.794617,109.646088 161.828690,105.906311 169.070160,108.131599 
	C175.973618,110.253036 180.202499,119.418930 178.237015,128.000366 
	C176.415436,135.953552 170.981857,140.548035 164.084198,139.967606 
	C157.655411,139.426636 152.381393,133.287415 151.968384,125.682716 
	C151.852081,123.541252 152.124741,121.378670 152.340515,118.825348 
M160.007095,124.373108 
	C160.556915,128.198853 160.045074,133.550049 165.487762,133.305618 
	C170.845078,133.065063 170.189468,127.697525 170.317383,123.877251 
	C170.532181,117.462265 168.436615,113.531128 165.195648,114.101250 
	C159.909531,115.031143 160.488541,119.671410 160.007095,124.373108 
z"/>
<path fill="#F5F9FF" opacity="1.000000" stroke="none" 
	d="
M60.618145,127.859917 
	C61.154388,128.300247 61.927448,128.467865 61.929462,128.459061 
	C63.040787,123.602875 64.079819,118.730255 65.165039,113.867943 
	C66.576355,107.544594 67.030518,107.297234 74.583267,108.942810 
	C71.965767,118.508400 69.431030,128.074646 66.608437,137.555191 
	C66.362244,138.382111 64.260506,138.930817 62.953903,139.103394 
	C61.000729,139.361374 58.988251,139.170395 56.509762,139.170395 
	C53.685341,129.082794 50.893368,119.111092 48.103424,109.146622 
	C55.193531,106.922852 56.032402,107.358543 57.498608,113.885612 
	C58.517376,118.420837 59.497448,122.964760 60.618145,127.859917 
z"/>
<path fill="#F5F9FF" opacity="1.000000" stroke="none" 
	d="
M76.106979,83.695511 
	C76.106918,74.937080 76.106918,66.645340 76.106918,56.935139 
	C79.441490,57.986729 82.095306,58.823635 85.354958,59.851593 
	C86.905144,57.570885 90.414368,55.663429 94.194969,57.659473 
	C95.350845,58.269737 94.669022,62.360703 94.836853,64.983795 
	C84.877243,64.089508 84.110184,64.816444 84.101608,74.074806 
	C84.097321,78.704933 84.100861,83.335060 84.100861,87.862274 
	C77.318726,89.649254 76.450363,89.216240 76.106979,83.695511 
z"/>
<path fill="#F7FAFF" opacity="1.000000" stroke="none" 
	d="
M101.954109,88.724777 
	C100.333405,87.810890 98.146355,86.924751 98.119957,85.978355 
	C97.861961,76.728165 97.964539,67.467918 97.964539,57.887806 
	C100.674553,57.887806 103.064499,57.887806 105.902779,57.887806 
	C105.902779,67.416145 106.007652,76.654228 105.748878,85.882118 
	C105.721458,86.860222 103.561180,87.778519 101.954109,88.724777 
z"/>
<path fill="#F5F9FF" opacity="1.000000" stroke="none" 
	d="
M87.154419,124.000153 
	C87.154419,129.127914 87.154419,133.757309 87.154419,138.776978 
	C84.505539,138.776978 82.142685,138.776978 79.468369,138.776978 
	C79.468369,128.813187 79.468369,118.931694 79.468369,108.446289 
	C81.729317,108.332886 83.959015,108.221054 87.154411,108.060783 
	C87.154411,113.394073 87.154411,118.447929 87.154419,124.000153 
z"/>
<path fill="#F4F9FF" opacity="1.000000" stroke="none" 
	d="
M163.265411,150.052307 
	C175.924011,149.891327 177.010056,154.478363 172.264984,164.620361 
	C170.655136,168.061188 167.240677,170.657700 164.650848,173.640045 
	C163.940414,173.171844 163.229965,172.703644 162.519531,172.235443 
	C163.542023,170.054459 164.774078,167.943558 165.533066,165.674438 
	C166.445694,162.945908 166.955856,160.082764 167.640274,157.277893 
	C164.603012,156.911087 161.572388,156.348694 158.526184,156.245422 
	C156.453964,156.175186 154.359940,156.747910 151.162170,157.185471 
	C153.871933,151.300934 158.584656,151.067383 163.265411,150.052307 
z"/>
<path fill="#F1F7FF" opacity="1.000000" stroke="none" 
	d="
M105.772095,48.085930 
	C107.192421,51.542294 106.538925,54.332764 103.108665,54.841019 
	C101.401604,55.093956 98.357689,53.602131 97.783768,52.158199 
	C97.220810,50.741837 98.520683,47.622105 99.946808,46.682602 
	C101.088982,45.930164 103.645569,47.324757 105.772095,48.085930 
z"/>
<path fill="#F4F8FF" opacity="1.000000" stroke="none" 
	d="
M81.545631,97.020630 
	C86.633865,97.136543 89.179359,99.697151 87.534027,102.908707 
	C86.842377,104.258766 84.932465,105.677971 83.501305,105.760262 
	C82.079544,105.842010 79.355522,104.318611 79.330368,103.438309 
	C79.270760,101.352844 80.472542,99.231323 81.545631,97.020630 
z"/>
<path fill="#0B7AFF" opacity="1.000000" stroke="none" 
	d="
M110.180115,126.640808 
	C109.629578,130.136597 108.913696,133.234955 104.964874,133.088226 
	C100.924347,132.938065 100.534767,129.417725 100.289536,126.577698 
	C100.039711,123.684509 100.256927,120.576027 101.123749,117.831566 
	C101.591652,116.350121 103.858109,114.503006 105.290749,114.521858 
	C106.731590,114.540817 108.910599,116.421547 109.399139,117.929359 
	C110.233681,120.505043 110.000702,123.426605 110.180115,126.640808 
z"/>
<path fill="#0B7AFF" opacity="1.000000" stroke="none" 
	d="
M62.262558,80.957443 
	C58.518078,83.812531 55.642410,82.701996 54.869961,78.906067 
	C54.109077,75.166969 54.343807,71.097778 54.904575,67.285645 
	C55.103638,65.932396 57.535866,64.007179 58.968102,63.990253 
	C60.387005,63.973492 62.980450,65.961487 63.056721,67.194061 
	C63.332912,71.657555 62.767578,76.173119 62.262558,80.957443 
z"/>
<path fill="#117BFF" opacity="1.000000" stroke="none" 
	d="
M165.467834,64.485123 
	C170.405365,62.519722 171.553665,63.392078 172.784637,69.826874 
	C169.677963,69.826874 166.620331,69.826874 162.961777,69.826874 
	C163.790604,67.945587 164.495270,66.346130 165.467834,64.485123 
z"/>
<path fill="#0C7BFF" opacity="1.000000" stroke="none" 
	d="
M140.000183,117.601837 
	C139.487900,119.002144 138.999817,120.696182 138.247559,120.822983 
	C136.016113,121.199127 133.680557,120.957657 129.455322,120.957657 
	C131.882309,117.926994 133.168594,115.559158 135.154663,114.266258 
	C135.822510,113.831497 138.269699,116.130035 140.000183,117.601837 
z"/>
<path fill="#0C7AFF" opacity="1.000000" stroke="none" 
	d="
M160.007172,123.944519 
	C160.488541,119.671410 159.909531,115.031143 165.195648,114.101250 
	C168.436615,113.531128 170.532181,117.462265 170.317383,123.877251 
	C170.189468,127.697525 170.845078,133.065063 165.487762,133.305618 
	C160.045074,133.550049 160.556915,128.198853 160.007172,123.944519 
z"/>
</svg>