<svg xmlns="http://www.w3.org/2000/svg" viewBox="0 0 603 182">
  <path fill="#232F3E" d="M374.456 72.604c-19.11 0-34.637 14.326-37.23 32.694h74.459c-2.593-18.368-18.12-32.694-37.229-32.694zm46.103 41.553H329.74c.185 20.037 16.895 36.193 37.229 36.193 14.326 0 26.859-8.015 33.065-20.037l19.295 11.163c-9.571 17.997-28.823 28.823-52.36 28.823-31.49 0-56.546-25.056-56.546-56.546s25.056-56.546 56.546-56.546c31.49 0 56.361 25.056 56.361 56.546 0 .371-.185.556-.371.371z"/>
  <path fill="#232F3E" d="M95.627 72.604c-19.11 0-34.637 14.326-37.23 32.694h74.459c-2.593-18.368-18.12-32.694-37.229-32.694zm46.103 41.553H50.912c.185 20.037 16.895 36.193 37.229 36.193 14.326 0 26.859-8.015 33.065-20.037l19.295 11.163c-9.571 17.997-28.823 28.823-52.36 28.823-31.49 0-56.546-25.056-56.546-56.546s25.056-56.546 56.546-56.546c31.49 0 56.361 25.056 56.361 56.546 0 .371-.185.556-.371.371z"/>
  <path fill="#FF9900" d="M458.623 61.256c-27.416-20.223-67.524-30.98-101.975-30.98-48.253 0-91.749 17.812-124.608 47.45-2.593 2.222-0.371 5.371 2.779 3.52 34.823-20.223 77.836-32.508 122.386-32.508 30.051 0 63.096 6.206 93.518 19.295 3.706 1.482 6.763-2.408 3.334-4.815l4.566-1.962z"/>
  <path fill="#FF9900" d="M469.416 49.157c-3.52-4.445-23.2-2.222-32.137-1.111-2.779.371-3.15-2.037-.741-3.706 15.701-11.163 41.553-7.946 44.517-4.075 2.964 3.706-.741 29.87-15.886 42.34-2.222 1.853-4.445.926-3.334-1.482 3.52-8.938 11.348-28.823 7.581-31.966z"/>
  <path fill="#232F3E" d="M280.897 38.18h-23.386v112.093h-20.593V38.18h-23.386V19.627h67.365V38.18z"/>
  <path fill="#232F3E" d="M539.877 57.25v9.571c0 5.371.185 10.112.556 13.622h-18.554l-1.296-8.089h-.556c-5.556 6.206-14.326 9.571-24.252 9.571-16.153 0-24.437-11.348-24.437-22.882 0-19.295 17.183-29.87 47.635-29.685v-1.667c0-6.577-1.852-18.368-18.554-18.368-7.575 0-15.516 2.408-21.351 6.206l-3.334-13.993c6.948-4.26 17.368-7.205 27.416-7.205 25.612 0 31.819 17.368 31.819 34.08v28.823l-.092-.284zm-20.037-21.537c-15.516-.371-26.863 2.408-26.863 14.326 0 7.575 5.001 11.163 10.853 11.163 8.275 0 13.622-5.186 15.33-10.483.371-1.296.741-2.593.741-3.706v-11.348l-.061.048z"/>
</svg>