<svg width="1000" height="1000" viewBox="0 0 1000 1000" fill="none" xmlns="http://www.w3.org/2000/svg">
<g clip-path="url(#clip0_1931_7059)">
<rect width="1000" height="1000" rx="221.484" fill="white"/>
<rect width="1000" height="1000" fill="#DA3734"/>
<path d="M898.705 334.877H537.448C528.965 334.877 523.673 344.06 527.914 351.396L557.275 402.256C559.24 405.661 562.878 407.762 566.809 407.762H578.463C577.179 421.343 572.004 461.074 554.648 468.371C537.584 475.55 511.765 483.703 447.051 477.068L431.33 444.886C454.231 435.878 473.999 420.662 488.514 401.264C461.119 397.372 436.233 382.313 420.103 359.315C415.978 353.4 417.399 345.267 423.294 341.122C429.19 336.978 437.342 338.418 441.487 344.313C455.476 364.257 478.338 376.184 502.659 376.184C502.834 376.184 503.029 376.164 503.204 376.164C510.5 359.84 514.586 341.745 514.586 322.716C514.586 286.137 499.604 253.06 475.458 229.245C489.681 217.435 503.924 202.161 509.664 185.117C519.898 154.705 508.029 133.984 502.815 129.859C501.433 128.769 499.566 128.653 498.067 129.567L401.6 184.26C369.535 180.194 316.67 181.673 275.149 224.945C226.02 276.136 240.652 339.488 248.863 363.615C250.497 368.42 255.867 370.638 260.342 368.615C276.2 411.07 313.421 443.096 358.931 451.677L365.702 464.382C361.655 463.584 357.549 462.767 353.327 461.892C215.922 433.621 186.348 435.955 166.113 473.235C146.442 509.464 156.987 567.445 156.987 567.445C156.987 567.445 138.892 620.971 175.257 639.67C196.368 650.527 248.882 656.013 261.802 600.522C261.802 600.522 261.588 598.051 265.635 594.315C269.682 590.58 292.699 562.795 262.872 536.373C258.708 532.676 249.933 526.878 241.216 531.236C241.216 531.236 240.263 502.09 270.421 506.292C282.912 508.024 305.755 514.425 319.336 517.713C323.441 518.706 327.449 519.64 331.419 520.574C346.07 552.23 369.476 607.741 386.618 672.007C347.704 684.09 278.321 697.457 213.899 667.999C194.811 659.418 175.744 663.835 166.988 682.883C154.691 709.617 142.317 736.332 129.962 763.046C127.529 768.338 125.914 773.845 125.428 779.662C125.389 780.207 125.156 780.732 125 781.277C125 783.534 125 785.791 125 788.048C125.525 790.869 125.914 793.71 126.595 796.492C131.907 817.564 149.204 832.605 170.782 834.998C171.327 835.056 171.833 835.29 172.358 835.426C174.615 835.426 176.872 835.426 179.129 835.426C182.145 834.862 185.239 834.511 188.196 833.675C207.089 828.382 219.366 816.3 224.834 797.426C226.799 790.616 228.569 783.729 230.496 776.627C276.861 775.148 350.35 759.991 410.005 731.74C423.761 725.222 438.763 716.602 449.834 708.022L469.621 707.71C512.193 707.107 552.547 716.252 590.566 735.456C618.895 749.757 643.761 768.669 665.105 792.154C673.841 801.765 684.329 808.128 697.17 810.229C720.499 814.023 743.478 802.855 753.731 781.472C763.752 760.594 773.188 739.464 782.878 718.431C790.213 702.515 798.054 686.794 804.728 670.587C815.78 643.736 811.908 618.598 793.482 596.144C781.749 581.863 766.262 573.458 747.875 571.395C722.717 568.554 701.567 576.882 684.718 595.794C676.546 604.978 671.74 615.913 668.724 627.742C666.331 637.101 663.646 646.402 661.078 655.722C660.941 656.227 660.747 656.714 660.552 657.278C655.591 655.371 650.785 653.426 645.901 651.674C628.02 645.254 609.653 640.934 590.78 638.677C576.031 636.926 561.225 636.42 546.398 637.296C544.978 637.374 544.297 637.062 543.752 635.642C529.607 587.739 522.038 564.391 510.637 542.696C527.253 542.443 543.869 541.548 561.186 540.206C621.249 535.497 638.274 507.966 657.42 451.56C657.42 451.56 718.378 448.33 734.022 407.743H869.325C873.255 407.743 876.894 405.642 878.859 402.237L908.22 351.376C912.481 344.06 907.169 334.877 898.705 334.877Z" fill="white"/>
</g>
<defs>
<clipPath id="clip0_1931_7059">
<rect width="1000" height="1000" rx="221.484" fill="white"/>
</clipPath>
</defs>
</svg>
