<?xml version="1.0" encoding="UTF-8"?>
<svg version="1.1" xmlns="http://www.w3.org/2000/svg" width="920" height="1760" viewBox="0 0 736 1408">
<path d="M0 0 C242.88 0 485.76 0 736 0 C736 464.64 736 929.28 736 1408 C493.12 1408 250.24 1408 0 1408 C0 943.36 0 478.72 0 0 Z " fill="#F9FAF9" transform="translate(0,0)"/>
<path d="M0 0 C242.88 0 485.76 0 736 0 C736 464.64 736 929.28 736 1408 C493.12 1408 250.24 1408 0 1408 C0 943.36 0 478.72 0 0 Z M37 43 C37 193.81 37 344.62 37 500 C35.68 500 34.36 500 33 500 C33 784.13 33 1068.26 33 1361 C242.78661041 1361.13096201 242.78661041 1361.13096201 452.57324219 1361.20776367 C493.05322266 1361.24865723 493.05322266 1361.24865723 511.97491455 1361.27412415 C526.12945828 1361.29132987 540.28390982 1361.29193422 554.43845876 1361.28460332 C568.85853138 1361.27753976 583.27849986 1361.28902791 597.69854446 1361.31859394 C606.28177442 1361.33564143 614.86474738 1361.33904227 623.44797919 1361.32218649 C629.76874824 1361.31127976 636.08920116 1361.32615858 642.40992355 1361.35144043 C644.97690819 1361.35759568 647.54392954 1361.35516449 650.11089563 1361.34362853 C653.58908699 1361.32922321 657.06581966 1361.3451748 660.54392624 1361.36914349 C661.55703445 1361.35761278 662.57014267 1361.34608207 663.61395113 1361.33420194 C670.38178004 1361.427056 670.38178004 1361.427056 673.57440305 1364.38586408 C674.91101642 1366.83682964 676.17345767 1369.236488 677.25 1371.8125 C677.58515625 1372.60269531 677.9203125 1373.39289063 678.265625 1374.20703125 C678.50796875 1374.79871094 678.7503125 1375.39039063 679 1376 C679.66 1376 680.32 1376 681 1376 C681.40992188 1375.15695312 681.81984375 1374.31390625 682.2421875 1373.4453125 C683.05042969 1371.80175781 683.05042969 1371.80175781 683.875 1370.125 C684.40867187 1369.03445313 684.94234375 1367.94390625 685.4921875 1366.8203125 C687 1364 687 1364 689 1362 C692.96 1361.67 696.92 1361.34 701 1361 C701 1076.87 701 792.74 701 500 C702.32 500 703.64 500 705 500 C705 349.19 705 198.38 705 43 C484.56 43 264.12 43 37 43 Z " fill="#494946" transform="translate(0,0)"/>
<path d="M0 0 C181.17 0 362.34 0 549 0 C549 18.48 549 36.96 549 56 C367.83 56 186.66 56 0 56 C0 37.52 0 19.04 0 0 Z " fill="#429EDB" transform="translate(97,142)"/>
<path d="M0 0 C242.88 0 485.76 0 736 0 C736 6.6 736 13.2 736 20 C732.04 17.03 732.04 17.03 728 14 C725.54253912 12.77126956 723.94840863 12.87349268 721.1995542 12.87119883 C719.66637891 12.86629054 719.66637891 12.86629054 718.10223037 12.86128309 C716.96850987 12.86276672 715.83478938 12.86425034 714.66671371 12.86577892 C713.46576991 12.86342669 712.26482612 12.86107446 711.02749008 12.85865095 C707.66860954 12.85310838 704.30978104 12.85209137 700.95089951 12.85292836 C697.30626439 12.85275937 693.66163794 12.84685894 690.01700711 12.8416875 C682.77691417 12.83234268 675.53682734 12.8284363 668.29672911 12.82616853 C659.62930115 12.82321137 650.96188133 12.81451687 642.29445763 12.80575425 C621.34266598 12.78488951 600.39087289 12.77443711 579.43907326 12.76562465 C569.5325345 12.76142128 559.62599635 12.75619889 549.7194581 12.75094012 C515.82562173 12.73304873 481.93178518 12.71805127 448.03794479 12.71061993 C445.90926602 12.71014517 443.78058725 12.70966928 441.65190847 12.70919226 C440.59624822 12.70895589 439.54058796 12.70871951 438.452938 12.70847597 C433.10420476 12.70727474 427.75547152 12.7060593 422.40673828 12.70483398 C421.34525545 12.70459383 420.28377263 12.70435368 419.19012365 12.70410626 C384.76062544 12.69621022 350.33116164 12.67277273 315.90167845 12.64027804 C279.52299153 12.6060062 243.14432476 12.58627127 206.76562142 12.58297569 C202.7746787 12.58255813 198.78373599 12.58207856 194.79279327 12.58155251 C193.31870959 12.58136772 193.31870959 12.58136772 191.81484645 12.5811792 C175.97734574 12.57884392 160.1398849 12.56316578 144.30239842 12.54271066 C128.39333986 12.52248855 112.48432935 12.5169582 96.57526031 12.52648129 C87.11609047 12.5317103 77.65708024 12.52575303 68.19793326 12.50394662 C61.88513308 12.4904896 55.57244337 12.49147013 49.25964221 12.50434858 C45.65892451 12.51127939 42.05851304 12.51179927 38.45782205 12.49478849 C34.58395294 12.47663562 30.71053862 12.48923751 26.83665085 12.50501537 C25.71229502 12.49479317 24.58793918 12.48457096 23.42951196 12.47403899 C17.51372953 12.5270301 13.48326018 12.7065791 9 17 C5.89277172 21.59677502 5.57001099 25.78700351 5.61523914 31.18777275 C5.61008924 32.00005006 5.60493933 32.81232738 5.59963337 33.64921916 C5.58599624 36.37639752 5.59370461 39.10309582 5.60127258 41.83029175 C5.59583436 43.80300378 5.58908332 45.77571256 5.58113068 47.74841607 C5.56306846 53.17344853 5.56366697 58.59834436 5.56726015 64.02339983 C5.56788291 69.87204239 5.55127415 75.72063866 5.53674316 81.56925964 C5.51392924 91.7037884 5.50206723 101.83828273 5.49761391 111.97283554 C5.49115934 126.62574124 5.46824413 141.27859428 5.44127061 155.93147518 C5.39770794 179.70398179 5.36799789 203.47648754 5.34643555 227.24902344 C5.32545628 250.34376309 5.29820161 273.43848141 5.26245117 296.53320312 C5.26135169 297.24507864 5.26025222 297.95695415 5.25911942 298.69040165 C5.24807109 305.83934588 5.23689518 312.9882899 5.2256258 320.13723378 C5.20267166 334.70046635 5.18056904 349.26370016 5.15898132 363.82693481 C5.1579877 364.49652929 5.15699409 365.16612377 5.15597036 365.85600899 C5.08971538 410.57065528 5.04337237 455.28532637 5 500 C4.01 500.33 3.02 500.66 2 501 C2.07821847 584.84002978 2.15766303 668.68005837 2.2436676 752.52008057 C2.24493928 753.76009738 2.24621096 755.00011418 2.24752118 756.27770726 C2.27516279 783.22385058 2.30302577 810.16999368 2.33111694 837.11613654 C2.34489064 850.32970296 2.35861541 863.54326944 2.37231445 876.75683594 C2.37367854 878.07177447 2.37504262 879.38671301 2.37644804 880.74149816 C2.42067287 923.39512905 2.46166334 966.04876203 2.50098413 1008.70239772 C2.54139401 1052.51897187 2.58505175 1096.33554161 2.63282111 1140.15210838 C2.63956009 1146.33484722 2.64626177 1152.51758611 2.65294075 1158.70032501 C2.65425648 1159.91722774 2.65557221 1161.13413047 2.6569278 1162.38790905 C2.6780477 1182.01031543 2.69572367 1201.63272349 2.71212531 1221.25513432 C2.72867047 1240.96189773 2.74881152 1260.66865483 2.77266841 1280.37541077 C2.78674764 1292.09670676 2.79802456 1303.81799781 2.80536438 1315.5393 C2.81053108 1323.35749787 2.81927367 1331.17568632 2.83098774 1338.99387711 C2.83756911 1343.45599466 2.84253528 1347.91809863 2.84316199 1352.38022134 C2.84376176 1356.43375121 2.8488825 1360.4872484 2.85772062 1364.54076846 C2.86009817 1366.00364148 2.86078085 1367.4665184 2.8596265 1368.92939289 C2.8583056 1370.90647092 2.86366132 1372.88355009 2.86938947 1374.86062026 C2.87048134 1375.95809993 2.8715732 1377.0555796 2.87269815 1378.18631624 C2.98464318 1380.66057655 3.16051951 1382.67681244 4 1385 C5.30915279 1386.03145371 6.64082143 1387.03542166 8 1388 C8 1388.66 8 1389.32 8 1390 C11.44428615 1390.7777304 14.62326969 1391.12635045 18.15150386 1391.1311025 C19.1755499 1391.13488715 20.19959595 1391.13867179 21.25467369 1391.14257112 C22.37512841 1391.14165919 23.49558314 1391.14074726 24.64999104 1391.1398077 C26.44810256 1391.14423484 26.44810256 1391.14423484 28.28253958 1391.14875141 C31.621268 1391.15593988 34.9599462 1391.15864832 38.29867873 1391.15947436 C41.92671673 1391.16144414 45.55474341 1391.16911984 49.18277472 1391.17604691 C56.3835576 1391.18886579 63.58433688 1391.19624597 70.78512852 1391.20194569 C79.40802424 1391.20900297 88.03090922 1391.22176091 96.65379809 1391.23449489 C118.48459087 1391.2663485 140.31539077 1391.2861798 162.14619902 1391.30378041 C168.05749504 1391.30854801 173.96879085 1391.31355669 179.88008666 1391.31858563 C216.56384426 1391.34962706 253.24760367 1391.37624802 289.93137074 1391.39300442 C298.43024003 1391.39694173 306.92910929 1391.40095356 315.42797852 1391.4050293 C316.48386664 1391.40553096 317.53975476 1391.40603263 318.62763949 1391.4065495 C352.87762258 1391.42297501 387.12753432 1391.46144313 421.37748229 1391.5123164 C456.57942077 1391.56450857 491.78132124 1391.59731451 526.9832992 1391.60458195 C531.95247079 1391.60561058 536.92164231 1391.6068469 541.89081383 1391.60820198 C542.86881248 1391.60846002 543.84681114 1391.60871806 544.85444611 1391.60898391 C560.60865681 1391.61368324 576.36277358 1391.63863573 592.11694909 1391.67095341 C607.94391429 1391.70294777 623.77077345 1391.71297633 639.59776715 1391.70052146 C649.00551 1391.69377248 658.4128893 1391.70378846 667.82057551 1391.73764846 C674.10153299 1391.7586088 680.38224349 1391.7578522 686.66320801 1391.73931505 C690.24416256 1391.72936863 693.82442313 1391.72896287 697.4053124 1391.75497787 C701.26135963 1391.78276941 705.11638946 1391.76422985 708.97248554 1391.74108028 C710.08591677 1391.75655652 711.19934799 1391.77203275 712.34651956 1391.78797796 C718.59091516 1391.70480473 722.47040512 1390.81016738 727.37987356 1386.8723839 C731.20057363 1382.45679194 732.37490732 1378.38009221 732.37900752 1372.62504733 C732.39127046 1370.71701123 732.39127046 1370.71701123 732.40378115 1368.77042896 C732.39770454 1367.36350535 732.39135436 1365.95658291 732.38476086 1364.54966164 C732.38868855 1363.04529902 732.39393012 1361.54093936 732.40036663 1360.03658539 C732.41429033 1355.88758682 732.40949007 1351.73878595 732.40173779 1347.58977898 C732.39660436 1343.08181371 732.40882134 1338.57389071 732.41886932 1334.06593835 C732.43408598 1326.1603302 732.43815506 1318.2547767 732.43499184 1310.34915543 C732.4303384 1298.59374478 732.44280335 1286.83839622 732.45882157 1275.08299779 C732.48527785 1255.30986572 732.49778316 1235.53674766 732.50238609 1215.7635994 C732.50699015 1196.18070178 732.5177651 1176.59782364 732.53681374 1157.01493454 C732.53858393 1155.18973449 732.53858393 1155.18973449 732.54038988 1153.32766171 C732.54641515 1147.14835594 732.55255098 1140.96905028 732.55872939 1134.78974466 C732.60231215 1091.00159925 732.63201048 1047.2134543 732.65356445 1003.42529297 C732.67453787 960.88101502 732.70178738 918.33674867 732.73754883 875.79248047 C732.73864831 874.48148854 732.73974778 873.1704966 732.74088058 871.81977764 C732.75192874 858.65447013 732.76310467 845.48916272 732.7743742 832.3238554 C732.79732941 805.50369514 732.81943181 778.6835342 732.84101868 751.8633728 C732.8420123 750.63017727 732.84300591 749.39698173 732.84402964 748.12641664 C732.91030401 665.75095392 732.95669747 583.37547759 733 501 C733.99 501 734.98 501 736 501 C736 800.31 736 1099.62 736 1408 C493.12 1408 250.24 1408 0 1408 C0 943.36 0 478.72 0 0 Z " fill="#F6F6F6" transform="translate(0,0)"/>
<path d="M0 0 C184.14 0 368.28 0 558 0 C558 10.23 558 20.46 558 31 C504.91145396 31.01705284 451.82290776 31.03303135 398.73435974 31.04234314 C397.55673111 31.04255023 397.55673111 31.04255023 396.355312 31.04276149 C379.29538829 31.04575404 362.23546456 31.04852428 345.17554078 31.05106533 C336.80997965 31.05231272 328.44441854 31.05360927 320.07885742 31.05493164 C319.2463608 31.0550624 318.41386418 31.05519316 317.55614039 31.05532788 C290.5476212 31.05959313 263.53910409 31.06710734 236.53058616 31.07629722 C208.78769327 31.08571989 181.04480153 31.09188314 153.30190707 31.09391499 C149.38802306 31.09420317 145.47413906 31.0945288 141.56025505 31.09487724 C140.78990766 31.09494467 140.01956026 31.09501209 139.22586901 31.09508156 C126.79977486 31.09626563 114.37368428 31.10091002 101.94759159 31.10683203 C89.47070288 31.112705 76.99381772 31.11497157 64.51692767 31.11350138 C57.75038414 31.11280534 50.98385175 31.11387961 44.21730995 31.11920547 C38.03375552 31.12403725 31.85021873 31.12434012 25.66666352 31.12089889 C23.41901555 31.12047298 21.17136652 31.12177058 18.92372067 31.12488318 C15.88976601 31.12884341 12.85587671 31.12676575 9.82192326 31.12304783 C8.48543316 31.12698835 8.48543316 31.12698835 7.12194327 31.13100848 C1.1141458 31.1141458 1.1141458 31.1141458 0 30 C0 20.1 0 10.2 0 0 Z " fill="#3C96D0" transform="translate(92,415)"/>
<path d="M0 0 C242.88 0 485.76 0 736 0 C736 6.6 736 13.2 736 20 C732.04 17.03 732.04 17.03 728 14 C725.54253912 12.77126956 723.94840863 12.87349268 721.1995542 12.87119883 C719.66637891 12.86629054 719.66637891 12.86629054 718.10223037 12.86128309 C716.96850987 12.86276672 715.83478938 12.86425034 714.66671371 12.86577892 C713.46576991 12.86342669 712.26482612 12.86107446 711.02749008 12.85865095 C707.66860954 12.85310838 704.30978104 12.85209137 700.95089951 12.85292836 C697.30626439 12.85275937 693.66163794 12.84685894 690.01700711 12.8416875 C682.77691417 12.83234268 675.53682734 12.8284363 668.29672911 12.82616853 C659.62930115 12.82321137 650.96188133 12.81451687 642.29445763 12.80575425 C621.34266598 12.78488951 600.39087289 12.77443711 579.43907326 12.76562465 C569.5325345 12.76142128 559.62599635 12.75619889 549.7194581 12.75094012 C515.82562173 12.73304873 481.93178518 12.71805127 448.03794479 12.71061993 C445.90926602 12.71014517 443.78058725 12.70966928 441.65190847 12.70919226 C440.59624822 12.70895589 439.54058796 12.70871951 438.452938 12.70847597 C433.10420476 12.70727474 427.75547152 12.7060593 422.40673828 12.70483398 C421.34525545 12.70459383 420.28377263 12.70435368 419.19012365 12.70410626 C384.76062544 12.69621022 350.33116164 12.67277273 315.90167845 12.64027804 C279.52299153 12.6060062 243.14432476 12.58627127 206.76562142 12.58297569 C202.7746787 12.58255813 198.78373599 12.58207856 194.79279327 12.58155251 C193.31870959 12.58136772 193.31870959 12.58136772 191.81484645 12.5811792 C175.97734574 12.57884392 160.1398849 12.56316578 144.30239842 12.54271066 C128.39333986 12.52248855 112.48432935 12.5169582 96.57526031 12.52648129 C87.11609047 12.5317103 77.65708024 12.52575303 68.19793326 12.50394662 C61.88513308 12.4904896 55.57244337 12.49147013 49.25964221 12.50434858 C45.65892451 12.51127939 42.05851304 12.51179927 38.45782205 12.49478849 C34.58395294 12.47663562 30.71053862 12.48923751 26.83665085 12.50501537 C25.71229502 12.49479317 24.58793918 12.48457096 23.42951196 12.47403899 C17.51372953 12.5270301 13.48326018 12.7065791 9 17 C5.89277172 21.59677502 5.57001099 25.78700351 5.61523914 31.18777275 C5.61008924 32.00005006 5.60493933 32.81232738 5.59963337 33.64921916 C5.58599624 36.37639752 5.59370461 39.10309582 5.60127258 41.83029175 C5.59583436 43.80300378 5.58908332 45.77571256 5.58113068 47.74841607 C5.56306846 53.17344853 5.56366697 58.59834436 5.56726015 64.02339983 C5.56788291 69.87204239 5.55127415 75.72063866 5.53674316 81.56925964 C5.51392924 91.7037884 5.50206723 101.83828273 5.49761391 111.97283554 C5.49115934 126.62574124 5.46824413 141.27859428 5.44127061 155.93147518 C5.39770794 179.70398179 5.36799789 203.47648754 5.34643555 227.24902344 C5.32545628 250.34376309 5.29820161 273.43848141 5.26245117 296.53320312 C5.26135169 297.24507864 5.26025222 297.95695415 5.25911942 298.69040165 C5.24807109 305.83934588 5.23689518 312.9882899 5.2256258 320.13723378 C5.20267166 334.70046635 5.18056904 349.26370016 5.15898132 363.82693481 C5.1579877 364.49652929 5.15699409 365.16612377 5.15597036 365.85600899 C5.08971538 410.57065528 5.04337237 455.28532637 5 500 C4.01 500.33 3.02 500.66 2 501 C2.33 792.06 2.66 1083.12 3 1383 C-0 1380 -0 1380 -0.37459537 1378.13637618 C-0.37440335 1377.42993555 -0.37421133 1376.72349492 -0.37401349 1375.995647 C-0.38107218 1375.17633175 -0.38813087 1374.35701649 -0.39540346 1373.5128735 C-0.38787683 1372.61063061 -0.3803502 1371.70838771 -0.37259549 1370.77880412 C-0.37642975 1369.81666016 -0.38026401 1368.8545162 -0.38421445 1367.86321635 C-0.3934873 1364.6016259 -0.38116384 1361.34046178 -0.36914349 1358.07888508 C-0.37136026 1355.72189644 -0.37489373 1353.36490873 -0.37963298 1351.00792381 C-0.38695013 1345.84781382 -0.38483907 1340.68779352 -0.37464955 1335.52769206 C-0.3594551 1327.80287319 -0.36152346 1320.07812554 -0.36704927 1312.35329714 C-0.37596103 1299.19028818 -0.37061156 1286.02731904 -0.35761642 1272.86431503 C-0.34449865 1259.51843369 -0.33789675 1246.17257294 -0.33932304 1232.82668495 C-0.33940912 1231.98488052 -0.3394952 1231.14307608 -0.33958388 1230.27576242 C-0.34005299 1225.98367271 -0.34062883 1221.69158301 -0.34124239 1217.39949332 C-0.34546896 1186.30379965 -0.33515827 1155.20812433 -0.31719017 1124.11243629 C-0.29943381 1093.30968955 -0.28786711 1062.50695066 -0.28463173 1031.70419884 C-0.28452849 1030.74822856 -0.28442526 1029.79225829 -0.28431889 1028.80731922 C-0.28337932 1020.07623734 -0.28251624 1011.34515546 -0.28174497 1002.61407357 C-0.27982657 980.90781155 -0.27694848 959.20154971 -0.27341938 937.4952879 C-0.27325943 936.50674009 -0.27309948 935.51819229 -0.27293468 934.4996885 C-0.26506665 886.39114679 -0.24614256 838.28261028 -0.22631836 790.17407227 C-0.21944349 773.47552494 -0.21261745 756.7769776 -0.20599365 740.07843018 C-0.2055828 739.04281033 -0.20517196 738.00719048 -0.20474866 736.94018821 C-0.18572491 688.81849724 -0.17457471 640.69680541 -0.16539519 592.57511167 C-0.16479348 589.42728165 -0.16418659 586.27945162 -0.16357798 583.13162159 C-0.15723793 550.32740539 -0.15127664 517.52318912 -0.14547966 484.71897282 C-0.1452312 483.3131837 -0.1452312 483.3131837 -0.14497772 481.8789948 C-0.14467656 480.17373913 -0.14437583 478.46848345 -0.14407576 476.76322778 C-0.11602949 317.84214213 -0.05554308 158.92108289 0 0 Z " fill="#E4E4E4" transform="translate(0,0)"/>
<path d="M0 0 C49.01377398 -0.13691917 98.02756132 -0.2642877 147.04147339 -0.33874512 C147.76665988 -0.33984957 148.49184637 -0.34095403 149.23900821 -0.34209196 C164.99849552 -0.36603409 180.75798485 -0.3881957 196.51747722 -0.40852264 C204.24570141 -0.41850151 211.97392505 -0.42887391 219.70214844 -0.43945312 C220.47120787 -0.4404992 221.2402673 -0.44154527 222.03263157 -0.44262304 C246.96920228 -0.47672621 271.90562817 -0.53682578 296.84211111 -0.61037777 C322.46326499 -0.68581214 348.0843387 -0.73507738 373.70560176 -0.75131992 C377.32273572 -0.75362523 380.9398694 -0.75623032 384.55700302 -0.75901794 C385.26892098 -0.75955733 385.98083894 -0.76009671 386.71433017 -0.76065244 C398.18368293 -0.7701137 409.65278809 -0.80723806 421.1220398 -0.85465627 C432.64691518 -0.90171595 444.17144825 -0.91910508 455.69643421 -0.90801102 C461.94338494 -0.90287144 468.1896077 -0.91091693 474.43642998 -0.9536438 C480.15123833 -0.99244766 485.86482621 -0.99462549 491.57968961 -0.96719116 C493.65113956 -0.96379839 495.72266431 -0.97405672 497.79396607 -0.99906546 C500.603739 -1.0310281 503.40906721 -1.01397482 506.21876717 -0.98438263 C507.02924299 -1.00539874 507.83971881 -1.02641485 508.6747545 -1.04806781 C512.22826836 -0.96307799 514.20555003 -0.75343944 516.84368978 1.74851614 C519.6311611 5.35910607 521.85964303 8.48059012 521.875 13.1875 C521.93300781 14.38439453 521.93300781 14.38439453 521.9921875 15.60546875 C520.34037492 19.59192982 516.81138972 21.22452962 513 23 C509.97907878 23.6572201 507.08562034 23.67589392 504.00225544 23.63199902 C503.12669859 23.63956582 502.25114175 23.64713262 501.34905288 23.65492871 C498.41833042 23.67416238 495.48890661 23.65784929 492.55818176 23.64164734 C490.4346859 23.64812542 488.31119574 23.65677956 486.18771666 23.66742164 C480.35490729 23.69024943 474.5224965 23.68184569 468.68967354 23.66828239 C462.39855562 23.65903705 456.10751741 23.67851146 449.81642151 23.69425964 C438.20616388 23.71885587 426.59606672 23.72054119 414.98579442 23.71013172 C404.26188875 23.70054392 393.53803015 23.6998288 382.81412315 23.70801735 C381.37573109 23.70908314 379.93733903 23.71014868 378.49894696 23.71121398 C376.3314632 23.71283504 374.16397945 23.71446734 371.99649573 23.716127 C351.84771746 23.73138201 331.698955 23.73688867 311.55017567 23.72152996 C310.79073971 23.72095119 310.03130376 23.72037242 309.24885459 23.71977612 C303.08162247 23.71501136 296.91439058 23.70995343 290.7471587 23.70487839 C266.67879008 23.68527673 242.61058917 23.69450182 218.54223633 23.72729492 C191.50413943 23.76405614 164.46614071 23.78117882 137.42801875 23.76788265 C134.54682237 23.76652512 131.66562597 23.76522506 128.78442955 23.76395607 C128.07499932 23.76362811 127.36556909 23.76330014 126.63464098 23.76296224 C115.91467141 23.75838065 105.19478558 23.76903483 94.47483253 23.78720665 C82.28983996 23.80780664 70.10512096 23.80672641 57.92012862 23.77857425 C51.699725 23.76476212 45.47971258 23.76070303 39.25932312 23.78252411 C33.57030057 23.80221821 27.88201628 23.79444707 22.19304546 23.76432977 C20.12995621 23.75829825 18.06680777 23.76249551 16.00376568 23.777693 C13.20834985 23.79679221 10.41551522 23.77927305 7.62022114 23.75225353 C6.81100943 23.76658638 6.00179772 23.78091922 5.16806445 23.79568639 C2.19535198 23.73684735 -0.24059568 23.60725249 -2.6189178 21.70544342 C-6.22950661 17.54676594 -6.69652426 14.63016932 -6.43359375 9.34765625 C-5.82119489 6.03187503 -4.50503374 4.21032389 -2 2 C-1.34 2 -0.68 2 0 2 C0 1.34 0 0.68 0 0 Z " fill="#3E97D2" transform="translate(110,1067)"/>
<path d="M0 0 C1.13658436 -0.00597315 2.27316872 -0.01194629 3.44419503 -0.01810044 C4.69321091 -0.00936192 5.9422268 -0.00062339 7.22909164 0.00837994 C8.56898105 0.00707193 9.9088697 0.00444559 11.24875426 0.00061244 C14.9339248 -0.00610547 18.61883448 0.0059179 22.30397177 0.02094662 C26.27667203 0.033884 30.2493572 0.02951916 34.2220726 0.0272398 C41.10614389 0.02566561 47.99012998 0.03509003 54.87417984 0.05195332 C64.82738585 0.076319 74.78055061 0.08414609 84.73378322 0.08791729 C100.88163644 0.09448559 117.02944424 0.11445703 133.1772728 0.14282513 C148.86477048 0.17035589 164.55225584 0.19159428 180.2397728 0.20434856 C181.20650847 0.20513673 182.17324414 0.20592491 183.16927484 0.20673696 C188.01903131 0.21065203 192.86878787 0.21444316 197.71854448 0.21817267 C237.96165479 0.24928038 278.2047151 0.30212649 318.44778061 0.36914349 C318.44778061 1.02914349 318.44778061 1.68914349 318.44778061 2.36914349 C319.37590561 2.63726849 320.30403061 2.90539349 321.26028061 3.18164349 C325.02025904 4.58241976 326.67351149 5.82060524 328.44778061 9.36914349 C329.64124884 21.559569 329.64124884 21.559569 326.19778061 26.61914349 C323.5359784 29.2809457 322.89425996 29.75054463 319.44778061 30.36914349 C319.44778061 31.02914349 319.44778061 31.68914349 319.44778061 32.36914349 C278.40163298 32.4377864 237.35549283 32.49066047 196.30929928 32.52233947 C191.46516015 32.52609167 186.62102113 32.52997463 181.77688217 32.53393841 C180.81248746 32.53472534 179.84809275 32.53551227 178.85447396 32.53632305 C163.23214861 32.54938259 147.60985633 32.57303946 131.9875506 32.60060187 C115.96168783 32.6286408 99.93584239 32.64531654 83.9099561 32.65140897 C74.018414 32.65552855 64.12696535 32.66854733 54.23545201 32.69289289 C47.45560636 32.70873141 40.67580913 32.71354812 33.89594631 32.70964762 C29.9823239 32.70772313 26.06886499 32.71070603 22.15527153 32.72675991 C18.57245181 32.74134976 14.98990566 32.74210195 11.40707339 32.73184017 C9.4967605 32.72997076 7.58645086 32.74291778 5.67618454 32.75638741 C-1.90327902 32.71657217 -6.40896253 31.89741531 -12.42721939 27.05664349 C-15.68883761 22.85254468 -15.22667247 17.74946619 -15.04440689 12.66211224 C-14.34121317 7.95741141 -13.15990887 6.40288237 -9.55221939 3.36914349 C-8.95001517 2.83406176 -8.34781094 2.29898003 -7.7273581 1.7476837 C-4.97069973 0.00059308 -3.25104345 -0.0037686 0 0 Z " fill="#484744" transform="translate(115.55221939086914,795.630856513977)"/>
<path d="M0 0 C1.68621469 -0.00298657 1.68621469 -0.00298657 3.40649432 -0.00603348 C4.6467502 -0.00312064 5.88700608 -0.0002078 7.16484547 0.00279331 C8.47822905 0.00193889 9.79161263 0.00108446 11.14479572 0.00020415 C14.79793381 -0.00203776 18.45104274 0.00197634 22.10417712 0.00698221 C26.04076648 0.01129086 29.97735414 0.00983999 33.9139452 0.00907993 C40.7368881 0.00855496 47.55982146 0.01169897 54.38276196 0.01731777 C64.24765236 0.02543639 74.11253813 0.02804837 83.97743151 0.02930576 C99.98162196 0.03149571 115.98580732 0.03815425 131.989995 0.04760838 C147.53882287 0.05678397 163.08764935 0.06386408 178.63647938 0.06811619 C179.59451679 0.06837891 180.5525542 0.06864164 181.53962304 0.06891232 C186.34569801 0.07021733 191.15177298 0.07148105 195.95784795 0.07272422 C235.84446238 0.08309506 275.73107113 0.10071182 315.61768055 0.12304783 C315.61768055 0.78304783 315.61768055 1.44304783 315.61768055 2.12304783 C316.21193836 2.21972752 316.80619617 2.3164072 317.4184618 2.41601658 C320.07446533 3.26990049 321.03285758 4.30784905 322.80518055 6.43554783 C323.31436024 7.02980564 323.82353992 7.62406345 324.3481493 8.23632908 C327.2391923 12.53286375 326.77876472 17.12943843 326.61768055 22.12304783 C326.28768055 22.78304783 325.95768055 23.44304783 325.61768055 24.12304783 C324.95768055 24.12304783 324.29768055 24.12304783 323.61768055 24.12304783 C323.39080555 24.74179783 323.16393055 25.36054783 322.93018055 25.99804783 C321.2383822 28.73714992 319.62523894 29.17329255 316.61768055 30.12304783 C316.61768055 30.78304783 316.61768055 31.44304783 316.61768055 32.12304783 C210.35768055 32.12304783 104.09768055 32.12304783 -5.38231945 32.12304783 C-5.38231945 31.46304783 -5.38231945 30.80304783 -5.38231945 30.12304783 C-6.12481945 29.89617283 -6.86731945 29.66929783 -7.63231945 29.43554783 C-11.47378508 27.60212105 -13.49720357 24.89327959 -15.38231945 21.12304783 C-16.0629484 14.81414107 -15.12989619 9.82172551 -12.38231945 4.12304783 C-11.39231945 3.79304783 -10.40231945 3.46304783 -9.38231945 3.12304783 C-9.05231945 2.46304783 -8.72231945 1.80304783 -8.38231945 1.12304783 C-5.30567329 0.09749911 -3.22248112 -0.00125633 0 0 Z " fill="#4E4D4A" transform="translate(118.38231945037842,557.8769521713257)"/>
<path d="M0 0 C1.67842588 -0.00668677 1.67842588 -0.00668677 3.39075935 -0.01350862 C4.62011872 -0.01332426 5.84947809 -0.01313989 7.11609077 -0.01294994 C9.07497236 -0.01846498 9.07497236 -0.01846498 11.07342732 -0.02409142 C14.7013114 -0.03410357 18.32917894 -0.03782693 21.95707488 -0.04048073 C25.86854679 -0.04438596 29.78000563 -0.05396396 33.69146919 -0.0626936 C43.1374419 -0.08244889 52.58341567 -0.09252173 62.02940387 -0.10142139 C66.47664662 -0.10580467 70.92388818 -0.11117127 75.37112999 -0.11641026 C90.15179065 -0.13341943 104.93245057 -0.14791499 119.71311951 -0.155159 C123.54805566 -0.15706891 127.3829918 -0.15898924 131.21792793 -0.16094494 C132.64766922 -0.16167055 132.64766922 -0.16167055 134.10629417 -0.16241082 C149.55702173 -0.17071639 165.007672 -0.19606358 180.45836578 -0.22852562 C196.31711698 -0.2615738 212.17582886 -0.27960561 228.03461468 -0.28280324 C236.94052368 -0.28497011 245.84631988 -0.29374488 254.75219536 -0.31926441 C262.33429705 -0.34094058 269.91625852 -0.34903697 277.49838768 -0.33929763 C281.36752753 -0.33474431 285.2363779 -0.33669873 289.10547829 -0.35605907 C293.29851118 -0.37685946 297.49089842 -0.36673358 301.68396187 -0.35352612 C302.9088598 -0.36449536 304.13375772 -0.37546461 305.39577377 -0.38676625 C311.75506411 -0.33822504 315.70935016 -0.17463921 320.52700996 4.13422108 C321.29013496 4.79422108 322.05325996 5.45422108 322.83950996 6.13422108 C326.14809097 10.05550227 325.81037027 14.79988396 325.73794746 19.73187733 C325.34178825 24.24369063 323.46969042 26.27629866 320.21836948 29.23528767 C315.24656114 32.43636685 309.28739601 31.68333338 303.59025764 31.64215565 C302.27108264 31.64839561 300.95190764 31.65463557 299.59275764 31.66106462 C295.93698089 31.67775461 292.28162209 31.66951333 288.62584388 31.65711975 C284.68096459 31.64807004 280.7361572 31.66203864 276.79129219 31.67303944 C269.06534263 31.69083062 261.33954847 31.68698189 253.61359281 31.67538887 C247.33422488 31.66635652 241.05490051 31.66512969 234.77552795 31.66948414 C233.43511643 31.67040354 233.43511643 31.67040354 232.06762589 31.67134151 C230.2522842 31.67262041 228.43694252 31.67391726 226.62160086 31.67523187 C209.59672547 31.6866396 192.57193622 31.6735213 175.54707497 31.65203041 C160.94000168 31.63416231 146.33305556 31.63726077 131.72598457 31.65570545 C114.76371906 31.67711406 97.80152907 31.68553771 80.83925194 31.6732564 C79.03027055 31.6719822 77.22128915 31.67072472 75.41230774 31.66948414 C74.52225503 31.66886704 73.63220233 31.66824993 72.71517833 31.66761413 C66.4441044 31.66416097 60.17307838 31.66998891 53.90201187 31.67940235 C46.2584795 31.69062374 38.61511142 31.68757952 30.97159786 31.66627938 C27.07195888 31.65577031 23.17259377 31.65164447 19.27295685 31.66487598 C15.70193886 31.67680916 12.13144821 31.67022272 8.56047796 31.64896578 C6.65915892 31.64239218 4.75780318 31.65542776 2.85652262 31.6691947 C-3.80793515 31.60796651 -8.07968352 31.17271587 -13.47299004 27.13422108 C-17.26067609 22.96776641 -17.6765557 19.33707832 -17.47299004 13.82172108 C-17.08690143 9.20410137 -16.70656366 6.48988299 -13.16049004 3.38422108 C-8.97722427 0.37154378 -5.06804647 0.00937087 0 0 Z " fill="#4C4C49" transform="translate(119.47299003601074,675.8657789230347)"/>
<path d="M0 0 C6.52377409 3.68959103 11.53450544 9.47074265 16.71875 14.7890625 C17.6365625 15.72492187 18.554375 16.66078125 19.5 17.625 C20.4178125 18.56601562 21.335625 19.50703125 22.28125 20.4765625 C24.77017445 22.7866849 27.10427284 24.27646319 30 26 C32.36297263 28.27132277 34.57998713 30.64372971 36.81640625 33.0390625 C38.98849452 34.98966771 40.15334984 35.62561064 43 36 C43 35.34 43 34.68 43 34 C44.4609375 32.4921875 44.4609375 32.4921875 46.375 30.875 C47.00148438 30.33617187 47.62796875 29.79734375 48.2734375 29.2421875 C50 28 50 28 52 28 C52 27.34 52 26.68 52 26 C52.66 26 53.32 26 54 26 C54 25.34 54 24.68 54 24 C57.46153846 21 57.46153846 21 60 21 C60 20.34 60 19.68 60 19 C61.71951974 17.46148234 63.50187497 15.99268241 65.3125 14.5625 C69.16467002 11.54764431 69.16467002 11.54764431 72.73046875 8.21484375 C74 7 74 7 76 7 C76 6.34 76 5.68 76 5 C78.89458321 1.62298625 80.52410484 0.17679994 85 -0.359375 C93.20238095 -0.39880952 93.20238095 -0.39880952 96 1 C97.03013277 2.64821244 98.03114628 4.31503702 99 6 C99.495 6.495 99.495 6.495 100 7 C100.81163941 12.27051918 100.74089069 16.70861736 97.5625 21.125 C93.82980197 25.49020772 89.59150005 29.54719196 85 33 C84.34 33 83.68 33 83 33 C83 33.66 83 34.32 83 35 C80.38456332 37.29022476 77.64009497 39.383862 74.89453125 41.515625 C71.82424268 44.15085243 69.50224616 46.83445275 67 50 C67.63502441 49.98428955 68.27004883 49.9685791 68.92431641 49.95239258 C71.8244523 49.8897141 74.72444524 49.85090583 77.625 49.8125 C79.12353516 49.77479492 79.12353516 49.77479492 80.65234375 49.73632812 C86.17992976 49.68141833 90.27009221 49.77152675 95 53 C97.6404666 57.08072111 97.94083897 62.29580513 97 67 C94.65704938 70.90984503 91.76859315 73.48760457 88 76 C85.10340651 76.24121349 82.2946645 76.37299442 79.39453125 76.4140625 C78.55532639 76.43342865 77.71612152 76.4527948 76.85148621 76.4727478 C74.17192742 76.53251213 71.4923256 76.57891612 68.8125 76.625 C66.99542401 76.6631827 65.17836606 76.70223461 63.36132812 76.7421875 C58.90769868 76.83821103 54.45398449 76.92225359 50 77 C49.67 78.98 49.34 80.96 49 83 C50.81588623 82.98428955 50.81588623 82.98428955 52.66845703 82.96826172 C57.17477442 82.93196657 61.68107896 82.9090649 66.1875 82.89013672 C68.13511328 82.88010081 70.08271157 82.86646912 72.03027344 82.84912109 C74.83532417 82.82476672 77.64017505 82.81349263 80.4453125 82.8046875 C81.74409836 82.78920364 81.74409836 82.78920364 83.06912231 82.77340698 C87.76085434 82.77254308 91.62925969 83.06616936 96 85 C98.18462158 87.8982229 98.24652138 90.50512027 98.1875 94.0625 C98.18105469 94.91972656 98.17460937 95.77695312 98.16796875 96.66015625 C98 99 98 99 97 102 C96.34 102 95.68 102 95 102 C94.71125 102.639375 94.4225 103.27875 94.125 103.9375 C93 106 93 106 91 107 C89.61090696 107.08918777 88.21763093 107.11759541 86.82568359 107.11352539 C85.53457169 107.11341209 85.53457169 107.11341209 84.21737671 107.11329651 C82.8220018 107.10555458 82.8220018 107.10555458 81.3984375 107.09765625 C80.44683746 107.0962413 79.49523743 107.09482635 78.51480103 107.09336853 C75.46816903 107.08776012 72.42160987 107.07520619 69.375 107.0625 C67.31250106 107.05748608 65.25000097 107.05292299 63.1875 107.04882812 C58.12497183 107.03778796 53.06249827 107.02051767 48 107 C48.02618408 107.57443848 48.05236816 108.14887695 48.0793457 108.74072266 C48.183918 111.36853171 48.24850944 113.99590231 48.3125 116.625 C48.35439453 117.52863281 48.39628906 118.43226562 48.43945312 119.36328125 C48.52149425 123.85913464 48.52013202 127.00442325 45.60546875 130.5859375 C41.99697747 133.92933722 40.02472599 134.28518674 35.09375 134.22265625 C31.93539858 133.88678679 29.68247725 132.64606558 27 131 C25.93700684 130.35647583 25.93700684 130.35647583 24.85253906 129.69995117 C23 128 23 128 22.54589844 125.73168945 C22.5668457 124.86761475 22.58779297 124.00354004 22.609375 123.11328125 C22.62226563 122.17548828 22.63515625 121.23769531 22.6484375 120.27148438 C22.69871094 118.80678711 22.69871094 118.80678711 22.75 117.3125 C22.76804688 116.32443359 22.78609375 115.33636719 22.8046875 114.31835938 C22.85184553 111.87793158 22.91763958 109.43945231 23 107 C22.11739502 107.0314209 21.23479004 107.0628418 20.32543945 107.09521484 C17.03581085 107.19776558 13.74789047 107.27282248 10.45727539 107.32958984 C9.0361036 107.35967954 7.61511628 107.40056404 6.19458008 107.45263672 C-5.6770975 107.87677371 -5.6770975 107.87677371 -9.00244141 105.67285156 C-10.33203125 104.0390625 -10.33203125 104.0390625 -12 101 C-12.66 100.67 -13.32 100.34 -14 100 C-14.91473744 91.58102767 -14.91473744 91.58102767 -12.734375 87.8125 C-10.66013924 85.39591465 -8.86400723 83.43200362 -6 82 C-3.82175039 81.91440882 -1.64084745 81.89286588 0.5390625 81.90234375 C2.49199219 81.90717773 2.49199219 81.90717773 4.484375 81.91210938 C5.86458399 81.92046534 7.24479232 81.92893029 8.625 81.9375 C10.01301926 81.94251499 11.40104022 81.9470779 12.7890625 81.95117188 C16.19275132 81.96299024 19.59635439 81.97946566 23 82 C23 80.02 23 78.04 23 76 C22.2793335 76.01047363 21.55866699 76.02094727 20.81616211 76.03173828 C17.52331079 76.07353715 14.2305155 76.09940188 10.9375 76.125 C9.80376953 76.14175781 8.67003906 76.15851563 7.50195312 76.17578125 C1.63810246 76.2099728 -3.5273997 76.2251232 -9 74 C-11.96077416 70.81147398 -13.23515054 68.29420111 -13.375 64 C-13.13633106 60.3216904 -12.79148226 57.28438415 -11 54 C-5.22682549 49.71072329 0.55120519 49.4874002 7.5 49.75 C8.4178125 49.76804687 9.335625 49.78609375 10.28125 49.8046875 C12.52196092 49.85136898 14.76039799 49.91681478 17 50 C17 49.34 17 48.68 17 48 C15.68 47.34 14.36 46.68 13 46 C13 45.01 13 44.02 13 43 C12.29875 42.95875 11.5975 42.9175 10.875 42.875 C6.92075987 41.67153561 4.50730824 39.24829968 2 36 C2 35.34 2 34.68 2 34 C1.41049561 33.89872803 0.82099121 33.79745605 0.21362305 33.69311523 C-2.39232984 32.87715624 -3.51274196 31.84722375 -5.41796875 29.91015625 C-6.03220703 29.29076172 -6.64644531 28.67136719 -7.27929688 28.03320312 C-7.90900391 27.38287109 -8.53871094 26.73253906 -9.1875 26.0625 C-9.82880859 25.41603516 -10.47011719 24.76957031 -11.13085938 24.10351562 C-16.94123072 18.19497539 -16.94123072 18.19497539 -17.1875 13.1875 C-17.09995311 8.34615713 -16.21500315 5.40484739 -13 1.6875 C-8.60361432 -0.78546695 -4.92055731 -1.09670668 0 0 Z " fill="#4C4C48" transform="translate(124,909)"/>
<path d="M0 0 C0.98742187 0.60199219 1.97484375 1.20398438 2.9921875 1.82421875 C6.33715163 4.24388761 8.34645827 6.71826177 10.75 10.0625 C11.50796875 11.10535156 12.2659375 12.14820313 13.046875 13.22265625 C16.29471103 17.84107909 17.52202908 21.07841268 18.125 26.625 C18.2077417 27.37555664 18.2904834 28.12611328 18.37573242 28.89941406 C19.66316456 41.59643231 20.88935652 56.22128697 15 68 C14.34 68 13.68 68 13 68 C12.88785156 68.73347656 12.77570313 69.46695313 12.66015625 70.22265625 C10.75135863 78.25315987 4.76006365 83.76729227 -2 88 C-12.01238653 94.0866073 -21.59126781 95.85739102 -33.25390625 93.28125 C-38.83511107 91.39806797 -41.87871679 89.24789713 -46 85 C-47.84231731 83.56795761 -49.69669355 82.15130109 -51.5625 80.75 C-56.69084455 76.5772049 -59.06172876 73.24004671 -61 67 C-61.53367187 65.48599609 -61.53367187 65.48599609 -62.078125 63.94140625 C-67.16149908 49.31775616 -68.4689277 33.34197416 -61.8125 19 C-56.37811783 8.79473581 -48.45168523 -1.20076702 -37.125 -5 C-24.23298434 -7.7730689 -10.87140116 -8.08861929 0 0 Z " fill="#474745" transform="translate(436,269)"/>
<path d="M0 0 C10.23 0 20.46 0 31 0 C31 50.49 31 100.98 31 153 C20.77 153 10.54 153 0 153 C0 102.51 0 52.02 0 0 Z " fill="#434240" transform="translate(281,1146)"/>
<path d="M0 0 C9.9 0 19.8 0 30 0 C30 50.82 30 101.64 30 154 C20.1 154 10.2 154 0 154 C0 103.18 0 52.36 0 0 Z " fill="#484845" transform="translate(501,1145)"/>
<path d="M0 0 C220.44 0 440.88 0 668 0 C668 150.81 668 301.62 668 457 C667.67 457 667.34 457 667 457 C667 306.52 667 156.04 667 1 C447.22 1 227.44 1 1 1 C1 151.81 1 302.62 1 458 C0.01 458 -0.98 458 -2 458 C-1.99984402 458.72011645 -1.99968804 459.44023291 -1.99952733 460.18217107 C-1.98257446 538.61290703 -1.96686995 617.0436432 -1.95765686 695.47438049 C-1.9575188 696.64665018 -1.95738075 697.81891986 -1.95723851 699.02671287 C-1.95424534 724.50560195 -1.95147519 749.98449105 -1.94893467 775.46338018 C-1.94768738 787.95890385 -1.94639082 800.45442751 -1.94506836 812.94995117 C-1.94487222 814.81509592 -1.94487222 814.81509592 -1.94467212 816.71792035 C-1.94041364 856.99368567 -1.93290448 897.26944958 -1.92370278 937.54521405 C-1.91426108 978.94682027 -1.90811244 1020.3484257 -1.90608501 1061.75003297 C-1.90579687 1067.60278039 -1.90547123 1073.45552781 -1.90512276 1079.30827522 C-1.90505533 1080.46013715 -1.90498791 1081.61199907 -1.90491844 1082.79876591 C-1.90373846 1101.31238633 -1.89910509 1119.82600435 -1.89316797 1138.33962379 C-1.88726783 1156.96910684 -1.88503524 1175.5985875 -1.88649862 1194.22807144 C-1.88725701 1205.28508549 -1.88525108 1216.34209079 -1.87920246 1227.39910325 C-1.87543124 1234.80130715 -1.87535123 1242.20350539 -1.87816819 1249.6057097 C-1.87966672 1253.81301137 -1.87965993 1258.0202966 -1.87511682 1262.22759645 C-1.87099492 1266.07448782 -1.87170065 1269.9213503 -1.87586002 1273.76824135 C-1.87688285 1275.76366845 -1.87311147 1277.75909638 -1.86899152 1279.75451949 C-1.8913487 1292.20657078 -2.50091769 1304.52294215 -3 1317 C217.11 1317 437.22 1317 664 1317 C664 1317.33 664 1317.66 664 1318 C663.18015625 1318.01417969 662.3603125 1318.02835938 661.515625 1318.04296875 C655.04109824 1318.14356797 655.04109824 1318.14356797 649.5 1321 C647.52671489 1324.94657022 645.67256504 1328.91645024 644 1333 C643.34 1333 642.68 1333 642 1333 C641.38511719 1331.73542969 641.38511719 1331.73542969 640.7578125 1330.4453125 C640.21898437 1329.34960938 639.68015625 1328.25390625 639.125 1327.125 C638.32449219 1325.48917969 638.32449219 1325.48917969 637.5078125 1323.8203125 C636.15464063 1320.96117453 636.15464063 1320.96117453 634 1319 C631.99776623 1318.69631516 631.99776623 1318.69631516 629.66072834 1318.74519098 C628.74175747 1318.73926302 627.82278661 1318.73333506 626.87596815 1318.72722747 C625.85760589 1318.73087711 624.83924362 1318.73452674 623.7900219 1318.73828697 C622.7101367 1318.73429049 621.6302515 1318.73029401 620.51764251 1318.72617642 C616.8578978 1318.71510741 613.19830191 1318.71841435 609.5385437 1318.7215271 C606.91157864 1318.71653695 604.28461513 1318.7106699 601.65765381 1318.70399475 C595.91656047 1318.69083528 590.17549666 1318.6851578 584.43438888 1318.68425441 C575.78657762 1318.68285377 567.13880964 1318.66986776 558.49101304 1318.65464286 C544.00085936 1318.62944705 529.51070947 1318.61333076 515.02053833 1318.60269165 C495.42781542 1318.58827736 475.83514286 1318.56144517 456.24243164 1318.5324707 C409.11996779 1318.46910771 361.99748187 1318.42312629 314.875 1318.375 C157.031875 1318.189375 157.031875 1318.189375 -4 1318 C-4 1033.87 -4 749.74 -4 457 C-2.68 457 -1.36 457 0 457 C0 306.19 0 155.38 0 0 Z " fill="#BBBBBA" transform="translate(37,43)"/>
<path d="M0 0 C0.70253906 0.00386719 1.40507812 0.00773437 2.12890625 0.01171875 C2.83144531 0.00785156 3.53398437 0.00398438 4.2578125 0 C9.50229247 0.01010497 9.50229247 0.01010497 10.62890625 1.13671875 C10.717485 3.87542117 10.74421332 6.58946858 10.7265625 9.328125 C10.72555542 10.05447144 10.72454834 10.78081787 10.72351074 11.5291748 C10.71826341 14.25253876 10.70430225 16.97588028 10.69140625 19.69921875 C10.67078125 25.78359375 10.65015625 31.86796875 10.62890625 38.13671875 C23.82890625 38.13671875 37.02890625 38.13671875 50.62890625 38.13671875 C50.58930342 26.00498278 50.58930342 26.00498278 50.53881836 13.87329102 C50.53589918 12.35823639 50.53335063 10.84318098 50.53125 9.328125 C50.52613403 8.53434448 50.52101807 7.74056396 50.51574707 6.92272949 C50.51543669 4.99369046 50.56654732 3.06474963 50.62890625 1.13671875 C51.62890625 0.13671875 51.62890625 0.13671875 55.2265625 0.0390625 C56.71487492 0.04573655 58.20317057 0.05769692 59.69140625 0.07421875 C60.45001953 0.07873047 61.20863281 0.08324219 61.99023438 0.08789062 C63.86982496 0.09971195 65.74937524 0.11764797 67.62890625 0.13671875 C67.65202757 12.7666736 67.66982026 25.39662345 67.68071842 38.02659512 C67.68594771 43.89054039 67.69304619 49.75447124 67.7043457 55.6184082 C67.71517295 61.27233587 67.72118274 66.92624962 67.72378349 72.58018684 C67.72563804 74.74245485 67.7292592 76.90472206 67.73463631 79.06698418 C67.74184458 82.08430532 67.74289728 85.10156818 67.74243164 88.11889648 C67.74602692 89.02232285 67.74962219 89.92574921 67.75332642 90.85655212 C67.74295841 97.02266659 67.74295841 97.02266659 66.62890625 98.13671875 C61.34890625 98.13671875 56.06890625 98.13671875 50.62890625 98.13671875 C50.62890625 83.94671875 50.62890625 69.75671875 50.62890625 55.13671875 C37.09890625 55.13671875 23.56890625 55.13671875 9.62890625 55.13671875 C9.62890625 68.99671875 9.62890625 82.85671875 9.62890625 97.13671875 C4.34890625 97.13671875 -0.93109375 97.13671875 -6.37109375 97.13671875 C-6.39421518 84.63714775 -6.41200781 72.1375818 -6.42290592 59.63799381 C-6.42813519 53.83458262 -6.43523362 48.031186 -6.4465332 42.2277832 C-6.45736053 36.63221022 -6.46337025 31.0366513 -6.46597099 25.44106865 C-6.46782552 23.30112931 -6.47144666 21.16119079 -6.47682381 19.0212574 C-6.48403219 16.03506909 -6.48508478 13.04893968 -6.48461914 10.06274414 C-6.48821442 9.16866852 -6.49180969 8.2745929 -6.49551392 7.35342407 C-6.48304216 0.01249141 -6.48304216 0.01249141 0 0 Z " fill="#4A4946" transform="translate(265.37109375,263.86328125)"/>
<path d="M0 0 C1.16764893 0.29414795 1.16764893 0.29414795 2.35888672 0.59423828 C7.22627687 1.99707158 10.20564015 3.73273776 13.4375 7.8125 C14.54797642 10.49732274 14.89971674 12.92802613 15.4375 15.8125 C16.0975 15.8125 16.7575 15.8125 17.4375 15.8125 C20.21744956 24.15234868 19.2523508 34.9046322 15.4375 42.8125 C13.35101172 46.04365893 11.16510561 49.09146693 8.4375 51.8125 C7.7775 51.8125 7.1175 51.8125 6.4375 51.8125 C6.4375 52.4725 6.4375 53.1325 6.4375 53.8125 C-2.70714458 59.40089391 -13.15036319 58.8125 -23.5625 58.8125 C-23.5625 70.6925 -23.5625 82.5725 -23.5625 94.8125 C-29.5025 94.8125 -35.4425 94.8125 -41.5625 94.8125 C-41.5625 63.1325 -41.5625 31.4525 -41.5625 -1.1875 C-27.52635215 -2.74707198 -13.79345338 -3.56021315 0 0 Z " fill="#4A4946" transform="translate(536.5625,266.1875)"/>
<path d="M0 0 C1.34463318 -0.00788544 1.34463318 -0.00788544 2.71643066 -0.01593018 C5.68051573 -0.02913577 8.64406373 -0.0203878 11.6081543 -0.01025391 C13.67075198 -0.01227501 15.73334897 -0.01518676 17.79594421 -0.01895142 C22.12103064 -0.02337598 26.44593126 -0.01694136 30.77099609 -0.00292969 C36.30585501 0.01413002 41.84027648 0.00434212 47.37511921 -0.01364708 C51.63629934 -0.02450874 55.8973765 -0.02102707 60.1585598 -0.0132637 C62.19864135 -0.01126662 64.23873235 -0.01370366 66.27880287 -0.02070236 C69.13663956 -0.02835235 71.99377759 -0.01666142 74.8515625 0 C75.68973007 -0.00607269 76.52789764 -0.01214539 77.39146423 -0.0184021 C82.70184518 0.03872583 86.40334107 0.90008516 91.11987305 3.38818359 C94.11987305 6.58173198 94.11987305 6.58173198 94.11987305 9.38818359 C95.10987305 9.71818359 96.09987305 10.04818359 97.11987305 10.38818359 C98.18253423 20.50876629 98.18253423 20.50876629 95.7019043 24.89599609 C92.4887604 28.60926686 89.24227429 31.9906003 84.16523552 32.63707256 C83.478332 32.6365278 82.79142849 32.63598303 82.08370972 32.63542175 C81.2901709 32.63961624 80.49663208 32.64381073 79.67904663 32.64813232 C78.38687729 32.63970306 78.38687729 32.63970306 77.06860352 32.63110352 C76.15439636 32.63300186 75.24018921 32.63490021 74.29827881 32.63685608 C71.27778538 32.64055956 68.25753259 32.62986689 65.23706055 32.61865234 C63.1400658 32.61746034 61.04307051 32.61700742 58.94607544 32.61726379 C54.55296483 32.61569974 50.1599358 32.60741494 45.7668457 32.59399414 C40.12624865 32.57698353 34.48574109 32.57318044 28.84512138 32.57393932 C24.51639954 32.57366789 20.18769739 32.56819129 15.85898209 32.56093788 C13.77848586 32.55774873 11.6979874 32.55578323 9.61748886 32.55504417 C6.71573809 32.55288442 3.8140837 32.54414866 0.91235352 32.53344727 C0.04685883 32.53390045 -0.81863586 32.53435364 -1.71035767 32.53482056 C-7.65116955 32.50266229 -7.65116955 32.50266229 -9.88012695 31.38818359 C-9.88012695 30.72818359 -9.88012695 30.06818359 -9.88012695 29.38818359 C-10.51950195 29.12005859 -11.15887695 28.85193359 -11.81762695 28.57568359 C-13.88012695 27.38818359 -13.88012695 27.38818359 -14.88012695 24.38818359 C-15.54012695 24.38818359 -16.20012695 24.38818359 -16.88012695 24.38818359 C-18.55503009 19.36347419 -18.98710922 14.02722932 -16.90356445 9.06005859 C-12.43491456 1.65800048 -8.67183794 -0.06237728 0 0 Z " fill="#4E4D4A" transform="translate(536.880126953125,795.61181640625)"/>
<path d="M0 0 C1.37109169 -0.00262848 1.37109169 -0.00262848 2.7698822 -0.00531006 C5.79574473 -0.00971673 8.82154897 -0.00679497 11.84741211 -0.00341797 C13.9458365 -0.00409129 16.04426081 -0.00506155 18.14268494 -0.00631714 C22.54174542 -0.00779246 26.94078562 -0.00564464 31.33984375 -0.00097656 C36.98831069 0.00472413 42.63673015 0.00143851 48.28519535 -0.00454903 C52.61820333 -0.00815611 56.95119998 -0.00701543 61.2842083 -0.00442123 C63.36749718 -0.00375256 65.45078709 -0.00457834 67.53407478 -0.00690079 C70.44071314 -0.00943008 73.34727371 -0.00558292 76.25390625 0 C77.12097198 -0.00202423 77.98803772 -0.00404846 78.88137817 -0.00613403 C84.83372663 0.01512991 84.83372663 0.01512991 87.06225586 1.12939453 C87.06225586 1.78939453 87.06225586 2.44939453 87.06225586 3.12939453 C87.68100586 3.25314453 88.29975586 3.37689453 88.93725586 3.50439453 C91.06225586 4.12939453 91.06225586 4.12939453 93.06225586 6.12939453 C95.31512287 12.38735845 96.18806112 17.93961296 93.93725586 24.31689453 C91.36101039 28.18126273 88.67457137 31.54908632 84.0098381 32.58532524 C81.56784498 32.75777084 79.17165743 32.77095917 76.72387695 32.72875977 C75.80283676 32.73270248 74.88179657 32.7366452 73.93284607 32.7407074 C70.89990183 32.74739982 67.86847558 32.71829546 64.83569336 32.68798828 C62.72393078 32.68373654 60.61216353 32.68140942 58.50039673 32.68092346 C54.08037047 32.67476386 49.66085212 32.65208882 45.2409668 32.61645508 C39.57364437 32.57112791 33.90678101 32.55642581 28.23929405 32.55271816 C23.88129139 32.54829139 19.52338517 32.53299161 15.16542435 32.51384163 C13.07542336 32.50495988 10.98541209 32.49822966 8.89539719 32.49368095 C5.97737037 32.4846451 3.05975985 32.46226117 0.1418457 32.43579102 C-1.15492348 32.43479401 -1.15492348 32.43479401 -2.47789001 32.43377686 C-3.67214851 32.41881416 -3.67214851 32.41881416 -4.89053345 32.40354919 C-5.57961603 32.39889869 -6.26869862 32.39424818 -6.97866249 32.38945675 C-10.75626035 31.88799196 -13.35529039 30.13625745 -15.68774414 27.19189453 C-18.8942174 22.44156377 -18.67503674 17.65512506 -17.93774414 12.12939453 C-16.86597862 7.74882271 -15.43651545 4.10119041 -11.93774414 1.12939453 C-7.95880988 -0.19691689 -4.14794492 -0.00970635 0 0 Z " fill="#4F4D4A" transform="translate(537.937744140625,557.87060546875)"/>
<path d="M0 0 C0.87691498 -0.00511093 1.75382996 -0.01022186 2.65731812 -0.01548767 C5.5563642 -0.02938772 8.45517259 -0.02842626 11.35424805 -0.02612305 C13.37200509 -0.0300104 15.38976131 -0.03434515 17.40751648 -0.03910828 C21.63840384 -0.04657185 25.86920776 -0.04627867 30.10009766 -0.04101562 C35.51387022 -0.03522777 40.92729991 -0.05213486 46.34101582 -0.0753603 C50.50953662 -0.09011657 54.67797527 -0.09096663 58.84651756 -0.08785057 C60.84194809 -0.08836306 62.83738331 -0.09358716 64.83278847 -0.10366249 C67.62833306 -0.11604303 70.42321545 -0.10922493 73.21875 -0.09765625 C74.03821609 -0.10529999 74.85768219 -0.11294373 75.70198059 -0.12081909 C81.94198468 -0.06394108 86.6508625 1.12389796 91.6159668 5.1496582 C95.35316112 9.85575476 95.91546093 14.43717566 95.3034668 20.2746582 C94.3034668 23.2746582 94.3034668 23.2746582 93.3034668 25.2746582 C92.6434668 25.2746582 91.9834668 25.2746582 91.3034668 25.2746582 C90.9012793 26.2027832 90.9012793 26.2027832 90.4909668 27.1496582 C89.3034668 29.2746582 89.3034668 29.2746582 86.3034668 31.2746582 C83.3498589 31.46978343 80.490815 31.54755254 77.53686523 31.53344727 C76.64058914 31.5369519 75.74431305 31.54045654 74.82087708 31.54406738 C71.85145366 31.55288489 68.88226774 31.54703346 65.9128418 31.5402832 C63.84881545 31.54163032 61.78478942 31.54357125 59.72076416 31.54608154 C55.38973985 31.54903323 51.05879794 31.54473547 46.7277832 31.53540039 C41.18513257 31.52403439 35.64267623 31.53054697 30.10003281 31.54254532 C25.83457996 31.54978707 21.56917282 31.54746485 17.30371857 31.54228973 C15.26084622 31.54095816 13.21796969 31.54258367 11.17510223 31.54724884 C8.312506 31.55234889 5.45021975 31.54455371 2.58764648 31.53344727 C1.32803856 31.53951996 1.32803856 31.53951996 0.04298401 31.54571533 C-5.55461016 31.50564384 -10.94081766 31.17292018 -15.69262695 27.8996582 C-18.80739528 24.38815787 -20.09004884 21.90595996 -20.1965332 17.1496582 C-19.73220728 10.3292263 -17.88375361 6.84435237 -12.6965332 2.2746582 C-8.82367906 -0.41959792 -4.53101062 -0.01359743 0 0 Z " fill="#4D4C4A" transform="translate(538.696533203125,675.725341796875)"/>
<path d="M0 0 C6.6 0 13.2 0 20 0 C20 51.15 20 102.3 20 155 C13.4 155 6.8 155 0 155 C0 103.85 0 52.7 0 0 Z " fill="#484745" transform="translate(453,1145)"/>
<path d="M0 0 C1.06863281 0.01804687 2.13726562 0.03609375 3.23828125 0.0546875 C4.04652344 0.07789063 4.85476563 0.10109375 5.6875 0.125 C5.6875 0.785 5.6875 1.445 5.6875 2.125 C6.409375 2.351875 7.13125 2.57875 7.875 2.8125 C11.26450303 4.39426808 13.11214097 6.4240137 15.6875 9.125 C16.76411185 9.9669991 17.84752875 10.80036782 18.9375 11.625 C21.82477362 14.2497942 22.46966961 15.31296825 22.6875 19.125 C23.3475 19.125 24.0075 19.125 24.6875 19.125 C26.29001859 23.93255576 25.87201757 28.84065631 25.875 33.875 C25.88724609 34.9475 25.89949219 36.02 25.91210938 37.125 C25.92779204 45.61454921 24.74354013 51.56601612 20.6875 59.125 C20.0275 59.125 19.3675 59.125 18.6875 59.125 C18.460625 59.8675 18.23375 60.61 18 61.375 C16.4285439 64.6675747 14.68754284 66.09997109 11.6875 68.125 C11.0275 68.125 10.3675 68.125 9.6875 68.125 C9.1925 69.61 9.1925 69.61 8.6875 71.125 C5.14372246 72.63024531 1.22043864 72.22252721 -2.5625 72.1875 C-3.82578125 72.17847656 -5.0890625 72.16945313 -6.390625 72.16015625 C-7.83695312 72.14275391 -7.83695312 72.14275391 -9.3125 72.125 C-9.3125 71.465 -9.3125 70.805 -9.3125 70.125 C-9.869375 70.063125 -10.42625 70.00125 -11 69.9375 C-14.27662957 68.78625177 -15.97837006 66.64340336 -18.3125 64.125 C-18.9725 63.465 -19.6325 62.805 -20.3125 62.125 C-21.22513033 60.06660636 -22.07073212 57.97810049 -22.875 55.875 C-23.30941406 54.75609375 -23.74382812 53.6371875 -24.19140625 52.484375 C-28.30360266 40.16211399 -27.58513979 25.95193664 -22.3125 14.125 C-17.14600258 5.27825784 -10.5277673 -0.2313795 0 0 Z " fill="#F6F6F6" transform="translate(414.3125,275.875)"/>
<path d="M0 0 C6.27 0 12.54 0 19 0 C19 50.82 19 101.64 19 154 C12.73 154 6.46 154 0 154 C0 103.18 0 52.36 0 0 Z " fill="#464542" transform="translate(540,1145)"/>
<path d="M0 0 C6.27 0 12.54 0 19 0 C19 50.49 19 100.98 19 153 C12.73 153 6.46 153 0 153 C0 102.51 0 52.02 0 0 Z " fill="#444341" transform="translate(588,1146)"/>
<path d="M0 0 C2.81256281 -0.02684312 5.62487241 -0.04676188 8.4375 -0.0625 C9.23994141 -0.07087891 10.04238281 -0.07925781 10.86914062 -0.08789062 C12.91295221 -0.0965143 14.95683902 -0.0522815 17 0 C18 1 18 1 18.12304783 3.5281229 C18.12166514 5.23021365 18.12166514 5.23021365 18.12025452 6.96669006 C18.12162918 8.26384445 18.12300385 9.56099884 18.12442017 10.89746094 C18.12088055 12.3483889 18.11724573 13.79931663 18.11352539 15.25024414 C18.11324353 16.76761371 18.11340123 18.28498342 18.1139679 19.80235291 C18.11425591 23.93440516 18.10835858 28.06642863 18.10139394 32.19847417 C18.09516102 36.51198892 18.09455665 40.82550427 18.09336853 45.13902283 C18.09025503 53.31300117 18.08204139 61.48696621 18.07201904 69.66093868 C18.06085848 78.96428969 18.0553476 88.26764132 18.05032361 97.57099736 C18.03985879 116.714006 18.02205858 135.85700145 18 155 C11.73 155 5.46 155 -1 155 C-1.03013649 142.29167315 -1.0511266 129.58335793 -1.0625 116.875 C-1.06335602 115.92535496 -1.06421204 114.97570992 -1.06509399 113.99728775 C-1.08743953 85.89014589 -0.93998923 57.7913167 -0.5 29.6875 C-0.48804218 28.92321434 -0.47608437 28.15892868 -0.46376419 27.37148285 C-0.32004939 18.24746097 -0.16608471 9.12364453 0 0 Z " fill="#494947" transform="translate(382,1145)"/>
<path d="M0 0 C0.89364258 -0.00386719 1.78728516 -0.00773437 2.70800781 -0.01171875 C9.21068954 0.10257225 14.18966817 1.06437373 19.25 5.4375 C19.13490339 6.85500563 19.00746342 8.27151169 18.875 9.6875 C18.80539063 10.47640625 18.73578125 11.2653125 18.6640625 12.078125 C18.23492887 14.523377 17.46399362 16.28586903 16.25 18.4375 C13.45145384 17.92867343 10.88155424 17.30967188 8.1875 16.375 C2.60098299 14.77010147 -4.34626481 14.07600592 -9.8203125 16.265625 C-12.06338037 17.71765927 -13.54880884 19.03511768 -14.75 21.4375 C-14.89716542 23.24593663 -14.9710887 25.06081566 -15 26.875 C-15.02578125 27.84308594 -15.0515625 28.81117188 -15.078125 29.80859375 C-14.95990938 32.41434616 -14.95990938 32.41434616 -13.578125 34.12109375 C-11.25135512 35.79656693 -8.87586648 36.91191872 -6.25 38.0625 C-5.2909375 38.48789062 -4.331875 38.91328125 -3.34375 39.3515625 C-0.70844397 40.49284131 -0.70844397 40.49284131 2.25 41.4375 C2.25 42.0975 2.25 42.7575 2.25 43.4375 C3.57 43.4375 4.89 43.4375 6.25 43.4375 C6.25 44.4275 6.25 45.4175 6.25 46.4375 C7.4875 46.7159375 7.4875 46.7159375 8.75 47 C15.00612408 49.56947953 20.40209459 54.23251822 23.25 60.4375 C23.6990908 63.32208736 23.7263808 66.14735149 23.6875 69.0625 C23.67847656 69.86212158 23.66945312 70.66174316 23.66015625 71.4855957 C23.43961602 79.06590042 22.47632735 85.8158519 17.2734375 91.65625 C12.05580357 96.4375 12.05580357 96.4375 9.25 96.4375 C9.25 97.0975 9.25 97.7575 9.25 98.4375 C-2.47013143 103.55173917 -17.92805246 102.93133252 -29.90234375 98.671875 C-32.2382155 97.6974009 -34.48695878 96.56902061 -36.75 95.4375 C-36.09580901 90.36751981 -33.8953591 86.01759223 -31.75 81.4375 C-27.19971799 81.1717901 -24.54489745 81.76856946 -20.5625 83.9375 C-12.69380173 87.72732203 -5.14182744 86.92938043 3.25 85.4375 C3.37375 84.839375 3.4975 84.24125 3.625 83.625 C4.25 81.4375 4.25 81.4375 6.25 78.4375 C7.03892567 73.22228611 7.17847173 68.04554029 4.25 63.5 C0.55464559 59.11176663 -4.4148621 57.35124961 -9.625 55.3125 C-11.75 54.4375 -11.75 54.4375 -13.75 52.4375 C-14.8225 52.169375 -15.895 51.90125 -17 51.625 C-21.46749044 50.21029469 -23.35171739 48.60408152 -26.75 45.4375 C-27.26691406 44.97085938 -27.78382813 44.50421875 -28.31640625 44.0234375 C-33.05245343 38.78410465 -33.24404149 30.98745148 -33.0234375 24.29296875 C-32.29942685 16.73222895 -29.39643589 12.21403471 -23.890625 7.00390625 C-20.76473402 4.71652982 -18.57852711 4.4375 -14.75 4.4375 C-14.75 3.7775 -14.75 3.1175 -14.75 2.4375 C-9.94506391 -0.03446092 -5.28264224 0.01555434 0 0 Z " fill="#494946" transform="translate(198.75,261.5625)"/>
<path d="M0 0 C6.27 0 12.54 0 19 0 C19.02810387 20.09259686 18.95183737 40.18142221 18.78125 60.2734375 C18.75858654 63.03308927 18.7362935 65.79274399 18.71398926 68.55239868 C18.6618393 74.97940594 18.60847088 81.40640242 18.5546174 87.8333956 C18.49317372 95.173726 18.43316039 102.5140679 18.37324238 109.85441089 C18.25037285 124.90295353 18.12573703 139.95148102 18 155 C12.06 155 6.12 155 0 155 C0 103.85 0 52.7 0 0 Z " fill="#4C4B48" transform="translate(426,1145)"/>
<path d="M0 0 C5.61 0 11.22 0 17 0 C18.79616928 1.79616928 18.1261724 4.49906293 18.12698364 6.92199707 C18.12980347 8.20929214 18.13262329 9.49658722 18.13552856 10.82289124 C18.13358396 12.262787 18.13153578 13.70268264 18.12939453 15.14257812 C18.13074851 16.64847354 18.13252843 18.15436861 18.13470459 19.66026306 C18.13927928 23.76138807 18.13748922 27.86248804 18.1343255 31.96361351 C18.13180209 36.24596603 18.13413939 40.52831634 18.13571167 44.81066895 C18.13753342 52.00350328 18.13512692 59.19632737 18.13037109 66.38916016 C18.12492846 74.71716334 18.12669112 83.04514204 18.1321975 91.37314463 C18.13672848 98.51027846 18.13737925 105.6474049 18.13475883 112.7845397 C18.13319597 117.05298355 18.13300253 121.32141588 18.13629532 125.58985901 C18.13917381 129.60183934 18.13719875 133.61378796 18.13140106 137.62576485 C18.13007334 139.10244761 18.13046778 140.57913302 18.13266373 142.05581474 C18.13537474 144.06320987 18.13138084 146.07061079 18.12698364 148.07800293 C18.12660662 149.20405693 18.12622959 150.33011093 18.12584114 151.49028778 C18 154 18 154 17 155 C11.39 155 5.78 155 0 155 C0 103.85 0 52.7 0 0 Z " fill="#545451" transform="translate(354,1145)"/>
<path d="M0 0 C5.94 0 11.88 0 18 0 C18 50.82 18 101.64 18 154 C12.06 154 6.12 154 0 154 C0 103.18 0 52.36 0 0 Z " fill="#464644" transform="translate(206,1145)"/>
<path d="M0 0 C5.61 0 11.22 0 17 0 C17 51.15 17 102.3 17 155 C11.39 155 5.78 155 0 155 C0 103.85 0 52.7 0 0 Z " fill="#484643" transform="translate(179,1145)"/>
<path d="M0 0 C5.61 0 11.22 0 17 0 C17 50.82 17 101.64 17 154 C11.39 154 5.78 154 0 154 C0 103.18 0 52.36 0 0 Z " fill="#454542" transform="translate(152,1145)"/>
<path d="M0 0 C5.61 0 11.22 0 17 0 C17 50.82 17 101.64 17 154 C11.39 154 5.78 154 0 154 C0 103.18 0 52.36 0 0 Z " fill="#41403D" transform="translate(253,1145)"/>
<path d="M0 0 C0.33 0 0.66 0 1 0 C1 283.8 1 567.6 1 860 C221.11 860 441.22 860 668 860 C668 860.33 668 860.66 668 861 C667.18015625 861.01417969 666.3603125 861.02835938 665.515625 861.04296875 C659.04109824 861.14356797 659.04109824 861.14356797 653.5 864 C651.52671489 867.94657022 649.67256504 871.91645024 648 876 C647.34 876 646.68 876 646 876 C645.38511719 874.73542969 645.38511719 874.73542969 644.7578125 873.4453125 C644.21898437 872.34960938 643.68015625 871.25390625 643.125 870.125 C642.32449219 868.48917969 642.32449219 868.48917969 641.5078125 866.8203125 C640.15464063 863.96117453 640.15464063 863.96117453 638 862 C635.99776623 861.69631516 635.99776623 861.69631516 633.66072834 861.74519098 C632.74175747 861.73926302 631.82278661 861.73333506 630.87596815 861.72722747 C629.85760589 861.73087711 628.83924362 861.73452674 627.7900219 861.73828697 C626.7101367 861.73429049 625.6302515 861.73029401 624.51764251 861.72617642 C620.8578978 861.71510741 617.19830191 861.71841435 613.5385437 861.7215271 C610.91157864 861.71653695 608.28461513 861.7106699 605.65765381 861.70399475 C599.91656047 861.69083528 594.17549666 861.6851578 588.43438888 861.68425441 C579.78657762 861.68285377 571.13880964 861.66986776 562.49101304 861.65464286 C548.00085936 861.62944705 533.51070947 861.61333076 519.02053833 861.60269165 C499.42781542 861.58827736 479.83514286 861.56144517 460.24243164 861.5324707 C413.11996779 861.46910771 365.99748187 861.42312629 318.875 861.375 C161.031875 861.189375 161.031875 861.189375 0 861 C0 576.87 0 292.74 0 0 Z " fill="#80807F" transform="translate(33,500)"/>
<path d="M0 0 C3.3 0 6.6 0 10 0 C10 51.15 10 102.3 10 155 C6.7 155 3.4 155 0 155 C0 103.85 0 52.7 0 0 Z " fill="#535350" transform="translate(233,1145)"/>
<path d="M0 0 C2.97 0 5.94 0 9 0 C9 50.82 9 101.64 9 154 C6.03 154 3.06 154 0 154 C0 103.18 0 52.36 0 0 Z " fill="#585857" transform="translate(617,1145)"/>
<path d="M0 0 C2.97 0 5.94 0 9 0 C9.02366656 12.67910515 9.04118079 25.35820465 9.05181217 38.03732777 C9.0569268 43.93122475 9.06380243 49.82510614 9.07543945 55.71899414 C9.13908545 88.82572237 8.7896837 121.90241999 8 155 C5.36 155 2.72 155 0 155 C0 103.85 0 52.7 0 0 Z " fill="#53575A" transform="translate(569,1145)"/>
<path d="M0 0 C2.64 0 5.28 0 8 0 C8 51.15 8 102.3 8 155 C5.36 155 2.72 155 0 155 C0 103.85 0 52.7 0 0 Z " fill="#656564" transform="translate(321,1145)"/>
<path d="M0 0 C2.64 0 5.28 0 8 0 C8 51.15 8 102.3 8 155 C5.36 155 2.72 155 0 155 C0 103.85 0 52.7 0 0 Z " fill="#5E5F5D" transform="translate(134,1145)"/>
<path d="M0 0 C2.64 0 5.28 0 8 0 C8 50.82 8 101.64 8 154 C5.36 154 2.72 154 0 154 C0 103.18 0 52.36 0 0 Z " fill="#4C4D4A" transform="translate(483,1145)"/>
<path d="M0 0 C2.64 0 5.28 0 8 0 C8 50.82 8 101.64 8 154 C5.36 154 2.72 154 0 154 C0 103.18 0 52.36 0 0 Z " fill="#4A4948" transform="translate(111,1145)"/>
<path d="M0 0 C2.31 0 4.62 0 7 0 C7 50.82 7 101.64 7 154 C4.69 154 2.38 154 0 154 C0 103.18 0 52.36 0 0 Z " fill="#3A3A39" transform="translate(409,1145)"/>
<path d="M0 0 C2.31 0 4.62 0 7 0 C7 50.49 7 100.98 7 153 C4.69 153 2.38 153 0 153 C0 102.51 0 52.02 0 0 Z " fill="#3C3C3A" transform="translate(339,1146)"/>
<path d="M0 0 C19.75675676 0 19.75675676 0 25.5 5.3125 C28.03048579 11.53327757 28.35616387 18.88307395 26.234375 25.32421875 C24.4034382 28.67367059 21.99123975 31.64326565 19 34 C14 35 14 35 0 35 C0 23.45 0 11.9 0 0 Z " fill="#F5F5F5" transform="translate(512,277)"/>
<path d="M0 0 C1.65 0 3.3 0 5 0 C5 22.77 5 45.54 5 69 C4.34 69 3.68 69 3 69 C2.67 96.39 2.34 123.78 2 152 C1.34 152 0.68 152 0 152 C0 101.84 0 51.68 0 0 Z " fill="#333230" transform="translate(322,1146)"/>
<path d="M0 0 C2.31 0 4.62 0 7 0 C7 50.82 7 101.64 7 154 C6.67 154 6.34 154 6 154 C5.505 106.48 5.505 106.48 5 58 C1.64856825 59.87596527 1.64856825 59.87596527 0 64 C0 42.88 0 21.76 0 0 Z " fill="#444443" transform="translate(409,1145)"/>
<path d="M0 0 C3.3 0 6.6 0 10 0 C10 51.81 10 103.62 10 157 C6.37 157 2.74 157 -1 157 C-1.0233273 136.67739909 -1.04097834 116.35480088 -1.05181217 96.03218937 C-1.05697549 86.59673173 -1.06401887 77.16128239 -1.07543945 67.72583008 C-1.0853852 59.50496317 -1.09185317 51.28410226 -1.09408849 43.0632295 C-1.09539579 38.70757678 -1.09848281 34.35194125 -1.10573006 29.99629402 C-1.11248855 25.90143386 -1.11461731 21.80659808 -1.11310768 17.71173286 C-1.11338409 16.20441048 -1.11539022 14.69708733 -1.11920547 13.18976974 C-1.12413999 11.14072501 -1.12239819 9.09166736 -1.12025452 7.0426178 C-1.12117631 5.89314195 -1.1220981 4.7436661 -1.12304783 3.55935764 C-1 1 -1 1 0 0 Z M1 2 C1 52.82 1 103.64 1 156 C3.64 156 6.28 156 9 156 C9 105.18 9 54.36 9 2 C6.36 2 3.72 2 1 2 Z " fill="#C4C6C6" transform="translate(482,1143)"/>
<path d="M0 0 C3.14581423 -0.02888514 6.29159469 -0.04675923 9.4375 -0.0625 C10.33533203 -0.07087891 11.23316406 -0.07925781 12.15820312 -0.08789062 C13.01220703 -0.09111328 13.86621094 -0.09433594 14.74609375 -0.09765625 C15.93223267 -0.10551147 15.93223267 -0.10551147 17.14233398 -0.11352539 C19 0 19 0 20 1 C20.09672695 2.99961455 20.1218703 5.00270193 20.12025452 7.00465393 C20.12162918 8.31022247 20.12300385 9.61579102 20.12442017 10.96092224 C20.12088055 12.42129539 20.11724573 13.88166831 20.11352539 15.34204102 C20.11324353 16.86926268 20.11340123 18.39648447 20.1139679 19.92370605 C20.11425591 24.08261688 20.10835855 28.24149911 20.10139394 32.40040326 C20.09516106 36.74194524 20.09455665 41.08348781 20.09336853 45.42503357 C20.09025502 53.65213582 20.08204137 61.87922486 20.07201904 70.10632128 C20.06085851 79.47013064 20.05534761 88.83394062 20.05032361 98.19775498 C20.03985877 117.46517749 20.02225895 136.73258769 20 156 C19.67 156 19.34 156 19 156 C18.67 105.18 18.34 54.36 18 2 C12.39 1.67 6.78 1.34 1 1 C1.00523682 2.67537842 1.01047363 4.35075684 1.01586914 6.0769043 C1.03900546 14.28042806 1.05331183 22.48394979 1.0625 30.6875 C1.06335602 31.44614601 1.06421204 32.20479202 1.06509399 32.98642731 C1.09315404 61.28544647 0.85390744 89.57834645 0.5 117.875 C0.48804218 118.83149319 0.47608437 119.78798637 0.46376419 120.7734642 C0.3163155 132.51574025 0.16175358 144.25791239 0 156 C-0.66 156 -1.32 156 -2 156 C-2.19581446 70.40688123 -2.19581446 70.40688123 -1.59428024 31.16267014 C-1.56246544 29.06021606 -1.53253247 26.95774183 -1.50296021 24.85525513 C-1.44794551 20.99842535 -1.38336679 17.14179849 -1.31640625 13.28515625 C-1.29968872 12.15613892 -1.28297119 11.02712158 -1.26574707 9.8638916 C-1.24580688 8.84670044 -1.2258667 7.82950928 -1.20532227 6.78149414 C-1.18977798 5.89965958 -1.1742337 5.01782501 -1.15821838 4.10926819 C-1 2 -1 2 0 0 Z " fill="#D3D4D3" transform="translate(381,1144)"/>
<path d="M0 0 C2.31 0 4.62 0 7 0 C7 50.16 7 100.32 7 152 C6.01 152 5.02 152 4 152 C2.96052164 145.18564188 2.85008099 138.51095393 2.875 131.625 C2.87113281 130.53316406 2.86726562 129.44132812 2.86328125 128.31640625 C2.86457031 127.27613281 2.86585938 126.23585938 2.8671875 125.1640625 C2.86887939 123.74794678 2.86887939 123.74794678 2.87060547 122.30322266 C3 120 3 120 4 118 C4.1042112 116.44182966 4.14651469 114.87932595 4.15821838 113.31771851 C4.1680072 112.33051315 4.17779602 111.3433078 4.18788147 110.32618713 C4.19363693 109.23934128 4.1993924 108.15249542 4.20532227 107.03271484 C4.21522186 105.89125504 4.22512146 104.74979523 4.23532104 103.57374573 C4.26700665 99.78616436 4.29172138 95.99857044 4.31640625 92.2109375 C4.33696968 89.59062364 4.35796598 86.97031315 4.37937927 84.3500061 C4.42932354 78.14876233 4.47425592 71.94749269 4.51740164 65.7461983 C4.56675921 58.68700521 4.62168282 51.6278589 4.67708123 44.56871104 C4.79092788 30.04585164 4.89776107 15.52294569 5 1 C3.35 1 1.7 1 0 1 C0 0.67 0 0.34 0 0 Z " fill="#3F3F3E" transform="translate(618,1146)"/>
<path d="M0 0 C78.54 0 157.08 0 238 0 C238 0.33 238 0.66 238 1 C236.77023437 1.02126953 236.77023437 1.02126953 235.515625 1.04296875 C229.04109824 1.14356797 229.04109824 1.14356797 223.5 4 C221.52671489 7.94657022 219.67256504 11.91645024 218 16 C217.34 16 216.68 16 216 16 C215.59007812 15.15695312 215.18015625 14.31390625 214.7578125 13.4453125 C214.21898437 12.34960938 213.68015625 11.25390625 213.125 10.125 C212.59132813 9.03445313 212.05765625 7.94390625 211.5078125 6.8203125 C210.15464063 3.96117453 210.15464063 3.96117453 208 2 C205.2550641 1.79442447 202.60980708 1.71491305 199.86300659 1.7215271 C198.58637498 1.7128385 198.58637498 1.7128385 197.28395283 1.70397437 C194.41566389 1.68689107 191.54753503 1.68409074 188.67919922 1.68115234 C186.62966514 1.67185991 184.58013486 1.66169227 182.53060913 1.65071106 C176.95240117 1.6233198 171.37421858 1.6082347 165.7959609 1.59528303 C159.97162037 1.57969229 154.14733198 1.55288924 148.32302856 1.5272522 C137.2874993 1.48039236 126.25196031 1.44368319 115.21638215 1.41057932 C102.65547849 1.37240874 90.09462711 1.32298539 77.53376746 1.27259517 C51.68921701 1.16916818 25.844633 1.0799429 0 1 C0 0.67 0 0.34 0 0 Z " fill="#979595" transform="translate(463,1360)"/>
<path d="M0 0 C0.66 0.33 1.32 0.66 2 1 C2.02332739 21.06183326 2.04097839 41.12366378 2.05181217 61.18550777 C2.05697547 70.49989716 2.06401881 79.81427813 2.07543945 89.12866211 C2.08538526 97.2440536 2.09185318 105.359439 2.09408849 113.47483641 C2.09539578 117.77459788 2.09848274 122.07434192 2.10573006 126.37409782 C2.11248865 130.41642842 2.11461729 134.45873432 2.11310768 138.50107002 C2.11338408 139.98904174 2.11539016 141.47701423 2.11920547 142.96498108 C2.12414014 144.98775138 2.12239816 147.01053476 2.12025452 149.03330994 C2.12117631 150.1680371 2.1220981 151.30276426 2.12304783 152.4718771 C2 155 2 155 1 156 C-0.4887186 156.08669432 -1.981445 156.10703494 -3.47265625 156.09765625 C-4.37177734 156.09443359 -5.27089844 156.09121094 -6.19726562 156.08789062 C-7.14279297 156.07951172 -8.08832031 156.07113281 -9.0625 156.0625 C-10.01189453 156.05798828 -10.96128906 156.05347656 -11.93945312 156.04882812 C-14.29303065 156.0370011 -16.64648477 156.02052025 -19 156 C-19 155.34 -19 154.68 -19 154 C-12.73 154 -6.46 154 0 154 C0 103.18 0 52.36 0 0 Z " fill="#D0D0CE" transform="translate(559,1145)"/>
<path d="M0 0 C0.33 0 0.66 0 1 0 C1.03045615 15.08332432 1.05092418 30.1666492 1.0625 45.25 C1.06335602 46.35758038 1.06421204 47.46516075 1.06509399 48.60630417 C1.08797143 82.08289889 0.94987028 115.53475625 0 149 C-1.98 149 -3.96 149 -6 149 C-6 148.67 -6 148.34 -6 148 C-4.35 148 -2.7 148 -1 148 C-1.33 138.1 -1.66 128.2 -2 118 C-3.485 118.99 -3.485 118.99 -5 120 C-5.07429915 114.67979978 -5.12867247 109.35990331 -5.16479492 104.03930664 C-5.17985755 102.23033383 -5.20031177 100.4213974 -5.22631836 98.61254883 C-5.2628132 96.00853485 -5.27975157 93.4050048 -5.29296875 90.80078125 C-5.30845261 89.99538406 -5.32393646 89.18998688 -5.33988953 88.36018372 C-5.34125516 83.77732441 -5.04242953 80.69243043 -2 77 C-1.34 77 -0.68 77 0 77 C0 51.59 0 26.18 0 0 Z " fill="#494A4A" transform="translate(576,1150)"/>
<path d="M0 0 C0.33 0 0.66 0 1 0 C1.85300123 17.34360216 2.13235918 34.63651131 2 52 C0.02 52 -1.96 52 -4 52 C-4 40.45 -4 28.9 -4 17 C-3.34 16.67 -2.68 16.34 -2 16 C-1.67 17.65 -1.34 19.3 -1 21 C-0.67 14.07 -0.34 7.14 0 0 Z " fill="#3B3B3A" transform="translate(139,1247)"/>
<path d="M0 0 C0.495 1.485 0.495 1.485 1 3 C-1.44644196 5.88263412 -1.83745269 5.98587997 -5.9206543 6.34057617 C-7.55525275 6.34010167 -9.18989946 6.32318098 -10.82421875 6.29296875 C-11.68561966 6.28872391 -12.54702057 6.28447906 -13.43452454 6.28010559 C-16.18583431 6.26331248 -18.93641162 6.22565956 -21.6875 6.1875 C-23.5527238 6.17245396 -25.41795907 6.15876541 -27.28320312 6.14648438 C-31.85575098 6.11340693 -36.4277513 6.0616206 -41 6 C-41 6.99 -41 7.98 -41 9 C-39.82904785 8.98428955 -38.6580957 8.9685791 -37.45166016 8.95239258 C-33.11693166 8.89818804 -28.78223324 8.86368463 -24.44726562 8.83520508 C-22.56928474 8.82009675 -20.69133924 8.79960906 -18.81347656 8.77368164 C-16.11774981 8.73738754 -13.42248854 8.72029455 -10.7265625 8.70703125 C-9.46243027 8.68380547 -9.46243027 8.68380547 -8.17276001 8.66011047 C-5.80712891 8.65942383 -5.80712891 8.65942383 -2 9 C-1.34 9.99 -0.68 10.98 0 12 C-14.19 11.67 -28.38 11.34 -43 11 C-43 5 -43 5 -42 4 C-39.23690101 3.87683972 -36.49493661 3.81387435 -33.73046875 3.7890625 C-32.02017281 3.7609884 -30.30988648 3.7323239 -28.59960938 3.703125 C-25.89380211 3.66187869 -23.18817314 3.62500656 -20.48217773 3.59863281 C-17.87706043 3.57101757 -15.27276824 3.52513883 -12.66796875 3.4765625 C-11.45683662 3.4716832 -11.45683662 3.4716832 -10.22123718 3.46670532 C-5.90302792 3.37223633 -3.11695503 3.14252523 0 0 Z " fill="#BEBFBE" transform="translate(216,981)"/>
<path d="M0 0 C1.98 0 3.96 0 6 0 C6.02486464 5.12288059 6.04293752 10.24572542 6.05493164 15.36865234 C6.05993604 17.10856743 6.06674159 18.84847836 6.07543945 20.58837891 C6.08767662 23.10059642 6.09326739 25.61275794 6.09765625 28.125 C6.10281754 28.89303955 6.10797882 29.6610791 6.11329651 30.45239258 C6.11380013 35.38758692 5.70049068 40.11353214 5 45 C4.67 45 4.34 45 4 45 C3.11105451 38.95237086 2.87701516 33.10629284 2.9375 27 C2.958125 24.03 2.97875 21.06 3 18 C2.67 23.94 2.34 29.88 2 36 C1.34 35.67 0.68 35.34 0 35 C0 23.45 0 11.9 0 0 Z " fill="#424241" transform="translate(135,1145)"/>
<path d="M0 0 C10.23 0 20.46 0 31 0 C31 0.33 31 0.66 31 1 C29.77023437 1.02126953 29.77023437 1.02126953 28.515625 1.04296875 C22.04109824 1.14356797 22.04109824 1.14356797 16.5 4 C14.52671489 7.94657022 12.67256504 11.91645024 11 16 C10.34 16 9.68 16 9 16 C8.60167969 15.18015625 8.20335937 14.3603125 7.79296875 13.515625 C7.26316406 12.43796875 6.73335937 11.3603125 6.1875 10.25 C5.66542969 9.18265625 5.14335938 8.1153125 4.60546875 7.015625 C2.95002337 3.71993078 2.95002337 3.71993078 0 0 Z " fill="#A6A5A4" transform="translate(670,1360)"/>
<path d="M0 0 C1.32 0.33 2.64 0.66 4 1 C4 12.88 4 24.76 4 37 C3.67 37 3.34 37 3 37 C2.67 35.35 2.34 33.7 2 32 C1.34 32.99 0.68 33.98 0 35 C0 23.45 0 11.9 0 0 Z " fill="#4F4F4D" transform="translate(137,1194)"/>
<path d="M0 0 C16.875 0 16.875 0 23 3 C20.05265308 4.47367346 17.97146157 3.37858004 14.875 2.5703125 C10.63416475 1.72905986 6.30201307 1.43020131 2 1 C2 11.56 2 22.12 2 33 C7.61 33 13.22 33 19 33 C19 33.33 19 33.66 19 34 C14 35 14 35 0 35 C0 23.45 0 11.9 0 0 Z " fill="#AFAFAD" transform="translate(512,277)"/>
<path d="M0 0 C0.33 0 0.66 0 1 0 C1 35.31 1 70.62 1 107 C0.01 107 -0.98 107 -2 107 C-1.83923477 105.88616943 -1.67846954 104.77233887 -1.51283264 103.62475586 C-0.90645105 98.74634361 -0.82619077 93.91506001 -0.79467773 89.00390625 C-0.77982834 87.5537487 -0.77982834 87.5537487 -0.76467896 86.07429504 C-0.73328931 82.90372094 -0.70839634 79.73313189 -0.68359375 76.5625 C-0.66300473 74.35432564 -0.64200776 72.14615505 -0.62062073 69.93798828 C-0.56560122 64.14470484 -0.51610372 58.35138702 -0.46777344 52.55804443 C-0.41741092 46.63892583 -0.36180207 40.71985673 -0.30664062 34.80078125 C-0.19930539 23.2005632 -0.09780636 11.60030203 0 0 Z " fill="#F0F1F1" transform="translate(2,393)"/>
<path d="M0 0 C0.33 0 0.66 0 1 0 C1 9.57 1 19.14 1 29 C-0.65 29 -2.3 29 -4 29 C-4 20.75 -4 12.5 -4 4 C-2 7 -2 7 -2 9 C-1.34 9 -0.68 9 0 9 C0 6.03 0 3.06 0 0 Z " fill="#232323" transform="translate(574,1269)"/>
<path d="M0 0 C0.99 0.33 1.98 0.66 3 1 C2.67 20.8 2.34 40.6 2 61 C1.67 61 1.34 61 1 61 C0.97494385 59.86457764 0.9498877 58.72915527 0.92407227 57.55932617 C0.82994424 53.34924919 0.72973663 49.13933512 0.62768555 44.92944336 C0.58435713 43.10689096 0.54268053 41.28429852 0.50268555 39.46166992 C0.44493238 36.84281339 0.38125244 34.22415805 0.31640625 31.60546875 C0.29969376 30.78974899 0.28298126 29.97402924 0.26576233 29.1335907 C0.17986755 25.85820456 0.04247866 23.12743599 -1 20 C-1.01553817 18.44356451 -0.96798687 16.88599313 -0.87890625 15.33203125 C-0.83056641 14.43935547 -0.78222656 13.54667969 -0.73242188 12.62695312 C-0.67634766 11.69818359 -0.62027344 10.76941406 -0.5625 9.8125 C-0.51029297 8.87212891 -0.45808594 7.93175781 -0.40429688 6.96289062 C-0.27468082 4.64158499 -0.13971819 2.32071591 0 0 Z " fill="#31302F" transform="translate(323,1147)"/>
<path d="M0 0 C2.31 0 4.62 0 7 0 C6.67 11.22 6.34 22.44 6 34 C5.01 34.495 5.01 34.495 4 35 C4 24.44 4 13.88 4 3 C3.01 3.33 2.02 3.66 1 4 C0.67 2.68 0.34 1.36 0 0 Z " fill="#353530" transform="translate(483,1145)"/>
<path d="M0 0 C2.31 0 4.62 0 7 0 C6.0409375 0.6496875 6.0409375 0.6496875 5.0625 1.3125 C2.73253997 2.91239177 2.73253997 2.91239177 2 6 C1.88356421 7.88591396 1.82336539 9.77550782 1.79467773 11.66479492 C1.7647599 13.40626045 1.7647599 13.40626045 1.73423767 15.1829071 C1.71752518 16.43610245 1.70081268 17.68929779 1.68359375 18.98046875 C1.66281265 20.26359451 1.64203156 21.54672028 1.62062073 22.86872864 C1.56548094 26.27662815 1.51603611 29.68458741 1.46777344 33.09259033 C1.41749921 36.57154648 1.36184409 40.05041607 1.30664062 43.52929688 C1.19915811 50.35278951 1.09769123 57.17636036 1 64 C0.67 64 0.34 64 0 64 C0 42.88 0 21.76 0 0 Z " fill="#545452" transform="translate(409,1145)"/>
<path d="M0 0 C2.31 0 4.62 0 7 0 C6.360625 0.309375 5.72125 0.61875 5.0625 0.9375 C3.06389179 1.8345163 3.06389179 1.8345163 2 3 C1.90188748 4.41620622 1.87201745 5.83723595 1.87060547 7.25683594 C1.86745331 8.16157654 1.86430115 9.06631714 1.86105347 9.99847412 C1.8630777 10.98382141 1.86510193 11.9691687 1.8671875 12.984375 C1.86623077 13.99211975 1.86527405 14.9998645 1.86428833 16.03814697 C1.86360614 18.17679913 1.86546312 20.31545335 1.86962891 22.45410156 C1.87495446 25.72205297 1.86969673 28.98986553 1.86328125 32.2578125 C1.86394246 34.33333364 1.86522451 36.40885469 1.8671875 38.484375 C1.86516327 39.46162537 1.86313904 40.43887573 1.86105347 41.44573975 C1.86420563 42.36308899 1.86735779 43.28043823 1.87060547 44.22558594 C1.87140106 45.02865173 1.87219666 45.83171753 1.87301636 46.65911865 C2.00992427 49.18294902 2.44945769 51.53599953 3 54 C2.01 54 1.02 54 0 54 C0 36.18 0 18.36 0 0 Z " fill="#358DC9" transform="translate(98,143)"/>
<path d="M0 0 C0.33 0 0.66 0 1 0 C1.02692484 2.29160319 1.04636124 4.58329546 1.0625 6.875 C1.07410156 8.15117188 1.08570313 9.42734375 1.09765625 10.7421875 C1 14 1 14 0 16 C-0.27175818 18.59248672 -0.44572568 21.18448511 -0.62109375 23.78515625 C-0.80865234 24.88150391 -0.80865234 24.88150391 -1 26 C-1.66 26.33 -2.32 26.66 -3 27 C-3 20.4 -3 13.8 -3 7 C-2.67 7.66 -2.34 8.32 -2 9 C-1.34 9 -0.68 9 0 9 C0 6.03 0 3.06 0 0 Z " fill="#2C2B2C" transform="translate(574,1269)"/>
<path d="M0 0 C1.06863281 0.01804687 2.13726562 0.03609375 3.23828125 0.0546875 C4.04652344 0.07789063 4.85476563 0.10109375 5.6875 0.125 C5.6875 0.455 5.6875 0.785 5.6875 1.125 C4.96304687 1.15078125 4.23859375 1.1765625 3.4921875 1.203125 C-5.95979427 1.75764126 -10.44869604 4.92866963 -16.796875 11.734375 C-18.3125 13.125 -18.3125 13.125 -20.3125 13.125 C-18.94048559 7.94183445 -15.6087988 5.06094768 -11.3125 2.125 C-7.42443068 0.18096534 -4.32260858 -0.09500239 0 0 Z " fill="#B7B9B7" transform="translate(414.3125,275.875)"/>
<path d="M0 0 C9.59453303 5.96583144 9.59453303 5.96583144 13 11 C9.27566618 9.7874262 5.62197194 8.49140021 2 7 C2.33 8.32 2.66 9.64 3 11 C2.01 10.34 1.02 9.68 0 9 C0.556875 7.88625 0.556875 7.88625 1.125 6.75 C2.3116501 4.0648155 2.3116501 4.0648155 1.0546875 1.828125 C0.70664062 1.22484375 0.35859375 0.6215625 0 0 Z " fill="#ECECEC" transform="translate(379,345)"/>
<path d="M0 0 C4.75 0.75 4.75 0.75 7 3 C8.79758545 3.7831468 8.79758545 3.7831468 10.8125 4.4375 C14.14166639 5.62605485 17.03161872 7.05199978 20 9 C18 10 18 10 15.9765625 9.51171875 C14.81253906 9.10373047 14.81253906 9.10373047 13.625 8.6875 C12.46871094 8.29111328 12.46871094 8.29111328 11.2890625 7.88671875 C5.27936508 5.55873016 5.27936508 5.55873016 4 3 C1.98330173 1.86649466 1.98330173 1.86649466 0 1 C0 0.67 0 0.34 0 0 Z " fill="#A6A7A5" transform="translate(181,313)"/>
<path d="M0 0 C4.16976064 0.48112623 7.39300639 2.81188088 10 6 C10.875 9.8125 10.875 9.8125 11 13 C10.34 12.67 9.68 12.34 9 12 C9 11.34 9 10.68 9 10 C8.34 10 7.68 10 7 10 C5.96564444 8.35443434 4.97236487 6.6829392 4 5 C2.68962066 3.31522656 1.36176922 1.64351457 0 0 Z " fill="#30312F" transform="translate(209,311)"/>
<path d="M0 0 C1.89330273 3.78660546 -0.7922159 8.35547725 -2.03515625 12.2109375 C-3.08909567 16.3498899 -3.43847265 20.19011683 -3.625 24.4375 C-3.66367187 25.16904297 -3.70234375 25.90058594 -3.7421875 26.65429688 C-3.83533984 28.43583532 -3.91870286 30.21788122 -4 32 C-4.33 32 -4.66 32 -5 32 C-5.46123641 9.68128272 -5.46123641 9.68128272 0 0 Z " fill="#9B9C9B" transform="translate(375,287)"/>
<path d="M0 0 C2.46800047 1.15173355 4.04783565 2.04783565 6 4 C6.484375 6.53125 6.484375 6.53125 6.75 9.5 C6.84796875 10.4796875 6.9459375 11.459375 7.046875 12.46875 C7 15 7 15 5 17 C4.89042969 16.25234375 4.78085937 15.5046875 4.66796875 14.734375 C4.50941406 13.74953125 4.35085938 12.7646875 4.1875 11.75 C3.96126953 10.28820312 3.96126953 10.28820312 3.73046875 8.796875 C2.96331725 5.85954628 1.88241663 4.33110223 0 2 C0 1.34 0 0.68 0 0 Z " fill="#41403E" transform="translate(437,681)"/>
<path d="M0 0 C0 0.66 0 1.32 0 2 C-5.87328236 4.08827817 -11.78403089 4.88527585 -18 4 C-20.33203125 2.48046875 -20.33203125 2.48046875 -22 1 C-20.21142578 1.01740234 -20.21142578 1.01740234 -18.38671875 1.03515625 C-16.82031406 1.04453592 -15.25390769 1.05363593 -13.6875 1.0625 C-12.50897461 1.07506836 -12.50897461 1.07506836 -11.30664062 1.08789062 C-10.1706543 1.09272461 -10.1706543 1.09272461 -9.01171875 1.09765625 C-7.96697388 1.10551147 -7.96697388 1.10551147 -6.90112305 1.11352539 C-4.45785586 0.96762591 -2.46000489 0 0 0 Z " fill="#BBBCBB" transform="translate(202,345)"/>
<path d="M0 0 C0.66 0.33 1.32 0.66 2 1 C1.59007812 1.44988281 1.18015625 1.89976562 0.7578125 2.36328125 C-3.9018951 7.92594655 -5.23753998 12.84865082 -6 20 C-6.33 20 -6.66 20 -7 20 C-7.3853211 8.97553517 -7.3853211 8.97553517 -5 5 C-2.375 2.1875 -2.375 2.1875 0 0 Z " fill="#818180" transform="translate(526,678)"/>
<path d="M0 0 C0.66 0.33 1.32 0.66 2 1 C1.67 1.639375 1.34 2.27875 1 2.9375 C-0.73325913 8.2456061 -0.51749991 13.64626032 1 19 C0.01 18.67 -0.98 18.34 -2 18 C-3.79751401 12.60745798 -3.70522993 7.67492109 -1.5 2.4375 C-1.005 1.633125 -0.51 0.82875 0 0 Z " fill="#C5C5C5" transform="translate(104,564)"/>
<path d="M0 0 C0 0.66 0 1.32 0 2 C-0.66 2 -1.32 2 -2 2 C-2.268125 2.598125 -2.53625 3.19625 -2.8125 3.8125 C-4.99937467 7.84095334 -7.96753504 9.88295589 -12 12 C-12.99 12 -13.98 12 -15 12 C-12.88046983 9.99390948 -10.75486559 7.99506397 -8.625 6 C-8.02171875 5.42765625 -7.4184375 4.8553125 -6.796875 4.265625 C-6.21679688 3.72421875 -5.63671875 3.1828125 -5.0390625 2.625 C-4.50490723 2.12226562 -3.97075195 1.61953125 -3.42041016 1.1015625 C-2 0 -2 0 0 0 Z " fill="#C8C9C8" transform="translate(207,944)"/>
<path d="M0 0 C5.37313433 0.59701493 5.37313433 0.59701493 7.75 2.125 C9.58820692 4.88231038 10.21679556 7.80693572 11 11 C8.95880212 9.38405168 6.95927063 7.7143618 5 6 C5 5.34 5 4.68 5 4 C4.360625 3.71125 3.72125 3.4225 3.0625 3.125 C1 2 1 2 0 0 Z " fill="#868684" transform="translate(424,279)"/>
<path d="M0 0 C0.33 0.66 0.66 1.32 1 2 C-0.3125 4.625 -0.3125 4.625 -2 7 C-2.66 7 -3.32 7 -4 7 C-3.67 11.62 -3.34 16.24 -3 21 C-3.66 20.67 -4.32 20.34 -5 20 C-5.86140345 6.02612175 -5.86140345 6.02612175 -2.5 2.125 C-1.2625 1.073125 -1.2625 1.073125 0 0 Z " fill="#999997" transform="translate(106,799)"/>
<path d="M0 0 C0.66 0.33 1.32 0.66 2 1 C-2.05788982 6.47200293 -5.73776979 9.30076284 -12 12 C-12 11.34 -12 10.68 -12 10 C-8.53846154 7 -8.53846154 7 -6 7 C-6 6.34 -6 5.68 -6 5 C-4.04072937 3.2856382 -2.04119788 1.61594832 0 0 Z " fill="#80807E" transform="translate(190,923)"/>
<path d="M0 0 C0.66 0 1.32 0 2 0 C1.69121904 3.60244452 1.00552268 4.99345998 -1.375 7.8125 C-4 10 -4 10 -7 10 C-7 9.34 -7 8.68 -7 8 C-6.21625 7.38125 -5.4325 6.7625 -4.625 6.125 C-2.13770844 4.11147826 -1.14461734 2.91357141 0 0 Z " fill="#3A393A" transform="translate(216,347)"/>
<path d="M0 0 C-11.73786408 6 -11.73786408 6 -16 6 C-11.11274903 1.57820151 -6.85777767 -2.03084403 0 0 Z " fill="#7B7B7A" transform="translate(404,265)"/>
<path d="M0 0 C3.25543229 0.34879632 4.01873107 1.02133261 6.25 3.5625 C6.8275 4.366875 7.405 5.17125 8 6 C6.25 6.75 6.25 6.75 4 7 C1.75 5.25 1.75 5.25 0 3 C0 2.01 0 1.02 0 0 Z " fill="#565653" transform="translate(151,935)"/>
<path d="M0 0 C0.33 0.66 0.66 1.32 1 2 C0.32453125 1.94199219 -0.3509375 1.88398437 -1.046875 1.82421875 C-3.77468736 1.68625136 -6.2904291 1.63787181 -9 2 C-11.5404226 4.33830958 -11.5404226 4.33830958 -13 7 C-13.66 7 -14.32 7 -15 7 C-15 4 -15 4 -13.125 1.8125 C-8.74461583 -0.72812282 -4.94813666 -0.34588916 0 0 Z " fill="#8A8A89" transform="translate(124,909)"/>
<path d="M0 0 C0.66 0 1.32 0 2 0 C1.731875 0.886875 1.46375 1.77375 1.1875 2.6875 C0.60690249 6.20542015 0.60690249 6.20542015 3.4375 8.875 C4.283125 9.57625 5.12875 10.2775 6 11 C2.17647894 9.4422692 -0.29205593 7.08404742 -3 4 C-3 3.01 -3 2.02 -3 1 C-2.01 1.33 -1.02 1.66 0 2 C0 1.34 0 0.68 0 0 Z " fill="#BABDBC" transform="translate(398,335)"/>
<path d="M0 0 C3 1 3 1 4.6875 3.5625 C6.28057068 7.73482797 6.22913445 10.57006738 6 15 C3.51644525 10.22393318 1.0614426 5.307213 0 0 Z " fill="#393835" transform="translate(547,275)"/>
<path d="M0 0 C0.33 0 0.66 0 1 0 C1 6.93 1 13.86 1 21 C0.01 21.33 -0.98 21.66 -2 22 C-1.505 20.515 -1.505 20.515 -1 19 C-0.85426942 17.52034074 -0.75336732 16.03596157 -0.68359375 14.55078125 C-0.64169922 13.70322266 -0.59980469 12.85566406 -0.55664062 11.98242188 C-0.49766602 10.66081055 -0.49766602 10.66081055 -0.4375 9.3125 C-0.39431641 8.41982422 -0.35113281 7.52714844 -0.30664062 6.60742188 C-0.20064647 4.40509892 -0.09857949 2.20266527 0 0 Z " fill="#3C3C38" transform="translate(170,1016)"/>
<path d="M0 0 C1.875 0.25 1.875 0.25 4 1 C6.39522585 4.45977068 6.20715429 7.64228534 6.125 11.75 C6.10695313 12.92046875 6.08890625 14.0909375 6.0703125 15.296875 C6.03550781 16.63492188 6.03550781 16.63492188 6 18 C5.67 18 5.34 18 5 18 C4.97421875 17.20335937 4.9484375 16.40671875 4.921875 15.5859375 C4.57910663 9.18240118 4.23755897 4.92103622 0 0 Z " fill="#9F9F9E" transform="translate(438,800)"/>
<path d="M0 0 C1.60332791 -0.08121924 3.20784026 -0.13929134 4.8125 -0.1875 C6.15248047 -0.23970703 6.15248047 -0.23970703 7.51953125 -0.29296875 C10 0 10 0 13 3 C6.07 2.505 6.07 2.505 -1 2 C-0.67 1.34 -0.34 0.68 0 0 Z " fill="#717170" transform="translate(194,274)"/>
<path d="M0 0 C0.99 0 1.98 0 3 0 C2.67 2.64 2.34 5.28 2 8 C0.68 8 -0.64 8 -2 8 C-2 7.01 -2 6.02 -2 5 C-1.34 5 -0.68 5 0 5 C0 3.35 0 1.7 0 0 Z " fill="#3D3C3B" transform="translate(215,268)"/>
<path d="M0 0 C1.98 0 3.96 0 6 0 C6.33 0.66 6.66 1.32 7 2 C4.69 2.33 2.38 2.66 0 3 C-0.33 4.98 -0.66 6.96 -1 9 C-1.66 9 -2.32 9 -3 9 C-2.01 6.03 -1.02 3.06 0 0 Z " fill="#676664" transform="translate(167,343)"/>
<path d="M0 0 C0.66 0 1.32 0 2 0 C3.99785435 4.1205746 4.17835515 7.45194365 4 12 C0.46209597 8.30827405 0.40884117 4.90609405 0 0 Z " fill="#393835" transform="translate(449,289)"/>
<path d="M0 0 C6.42857143 1.07142857 6.42857143 1.07142857 9 3 C9.75 6.125 9.75 6.125 10 9 C9.278125 8.2575 8.55625 7.515 7.8125 6.75 C5.31407427 4.30709485 2.76356798 2.1318953 0 0 Z " fill="#B4B4B2" transform="translate(434,559)"/>
<path d="M0 0 C0.33 0.66 0.66 1.32 1 2 C-2.08290155 6.22797927 -2.08290155 6.22797927 -4 8 C-6.8125 8.375 -6.8125 8.375 -9 8 C-7.88625 7.13375 -7.88625 7.13375 -6.75 6.25 C-4.33912357 4.27746474 -2.15957299 2.23955718 0 0 Z " fill="#CCCCCD" transform="translate(217,351)"/>
<path d="M0 0 C0.33 0 0.66 0 1 0 C1.08153933 1.58246707 1.13943557 3.16616273 1.1875 4.75 C1.22230469 5.63171875 1.25710938 6.5134375 1.29296875 7.421875 C0.94923684 10.44671583 -0.00227459 11.75583602 -2 14 C-2.33 11.69 -2.66 9.38 -3 7 C-2.67 7.66 -2.34 8.32 -2 9 C-1.34 9 -0.68 9 0 9 C0 6.03 0 3.06 0 0 Z " fill="#323233" transform="translate(574,1269)"/>
<path d="M0 0 C0.66 0.33 1.32 0.66 2 1 C2 4.3 2 7.6 2 11 C1.34 11 0.68 11 0 11 C-1.125 3.375 -1.125 3.375 0 0 Z " fill="#353533" transform="translate(441,807)"/>
<path d="M0 0 C-0.33 0.99 -0.66 1.98 -1 3 C-2.32 3 -3.64 3 -5 3 C-5 3.66 -5 4.32 -5 5 C-6.98 5.33 -8.96 5.66 -11 6 C-3.8 0 -3.8 0 0 0 Z " fill="#C4C3C3" transform="translate(436,356)"/>
<path d="M0 0 C0 3 0 3 -1.6875 5.25 C-4 7 -4 7 -6.75 6.75 C-7.4925 6.5025 -8.235 6.255 -9 6 C-9 5.67 -9 5.34 -9 5 C-7.35 5 -5.7 5 -4 5 C-3.67 4.01 -3.34 3.02 -3 2 C-2.01 1.34 -1.02 0.68 0 0 Z " fill="#60615C" transform="translate(535,306)"/>
<path d="M0 0 C0.33 0 0.66 0 1 0 C1 3.3 1 6.6 1 10 C0.34 10 -0.32 10 -1 10 C-1.33 10.66 -1.66 11.32 -2 12 C-1.85831863 10.56208484 -1.71148957 9.1246763 -1.5625 7.6875 C-1.48128906 6.88699219 -1.40007813 6.08648437 -1.31640625 5.26171875 C-1 3 -1 3 0 0 Z " fill="#383736" transform="translate(552,296)"/>
<path d="M0 0 C2.31 0 4.62 0 7 0 C7 0.66 7 1.32 7 2 C5.02 2.66 3.04 3.32 1 4 C0.67 2.68 0.34 1.36 0 0 Z " fill="#3A3938" transform="translate(483,1145)"/>
<path d="M0 0 C1.31611677 0.95336021 2.62778961 1.91285774 3.9375 2.875 C4.66839844 3.40867187 5.39929688 3.94234375 6.15234375 4.4921875 C8 6 8 6 9 8 C3.5 6.53333333 3.5 6.53333333 1.125 4 C0 2 0 2 0 0 Z " fill="#9E9F9C" transform="translate(383,348)"/>
<path d="M0 0 C2.04219706 1.69179328 2.91793306 2.63727666 3.51171875 5.26171875 C3.56972656 6.06222656 3.62773437 6.86273438 3.6875 7.6875 C3.75324219 8.49574219 3.81898438 9.30398438 3.88671875 10.13671875 C3.92410156 10.75160156 3.96148437 11.36648438 4 12 C0.46209597 8.30827405 0.40884117 4.90609405 0 0 Z " fill="#8A8B8B" transform="translate(450,285)"/>
<path d="M0 0 C0.99 0 1.98 0 3 0 C2.6875 2.875 2.6875 2.875 2 6 C1.01 6.66 0.02 7.32 -1 8 C-0.67 5.36 -0.34 2.72 0 0 Z " fill="#53524F" transform="translate(729,1378)"/>
<path d="M0 0 C0.33 0.99 0.66 1.98 1 3 C-1.39509338 5.89932357 -3.31245243 6.50168276 -7 7 C-4.66666667 4.66666667 -2.33333333 2.33333333 0 0 Z " fill="#D3D3D4" transform="translate(443,349)"/>
<path d="M0 0 C0.66 0.33 1.32 0.66 2 1 C1.67 2.32 1.34 3.64 1 5 C-0.65 4.67 -2.3 4.34 -4 4 C-2.68 2.68 -1.36 1.36 0 0 Z " fill="#595858" transform="translate(214,275)"/>
<path d="M0 0 C2.62187494 1.04874998 3.79371361 1.64931313 5.25 4.125 C5.4975 4.74375 5.745 5.3625 6 6 C4 5 2 4 0 3 C0 2.01 0 1.02 0 0 Z " fill="#3F3E3B" transform="translate(386,348)"/>
<path d="M0 0 C1.32 0.33 2.64 0.66 4 1 C3.01 2.485 3.01 2.485 2 4 C-0.625 4.1875 -0.625 4.1875 -3 4 C-2.01 2.68 -1.02 1.36 0 0 Z " fill="#686868" transform="translate(177,267)"/>
<path d="M0 0 C4.25642352 -0.3648363 6.53555505 0.52539646 10 3 C10 3.33 10 3.66 10 4 C8.35 4 6.7 4 5 4 C4.67 3.01 4.34 2.02 4 1 C1.98491642 0.26676204 1.98491642 0.26676204 0 0 Z " fill="#525150" transform="translate(208,264)"/>
</svg>
