<svg xmlns="http://www.w3.org/2000/svg" viewBox="0 0 24 24">
  <path fill="#FFFC00" d="M12.017 0C5.396 0 .029 5.367.029 11.987c0 5.079 3.158 9.417 7.618 11.174-.105-.949-.199-2.403.041-3.439.219-.937 1.406-5.957 1.406-5.957s-.359-.219-.359-1.219c0-1.14.662-1.219 1.438-1.219.219 0 .359.219.359.538 0 .359-.219.898-.359 1.438-.105.539.219.898.758.898.898 0 1.578-.938 1.578-2.297 0-1.198-.858-2.096-2.156-2.096-1.578 0-2.517 1.159-2.517 2.297 0 .459.179.778.399 1.018.105.119.119.179.078.318-.039.119-.119.478-.158.618-.039.158-.158.199-.359.119-1.198-.539-1.798-1.997-1.798-3.635 0-2.596 1.897-4.414 5.334-4.414 2.776 0 4.613 1.937 4.613 4.074 0 2.637-1.518 4.594-3.756 4.594-.758 0-1.477-.399-1.717-.878 0 0-.399 1.518-.479 1.877-.179.718-.658 1.618-1.018 2.177C10.476 23.542 11.227 24 12.017 24c6.624 0 11.99-5.367 11.99-11.987C24.007 5.367 18.641.001 12.017.001z"/>
</svg>